<svg xmlns="http://www.w3.org/2000/svg" xml:space="preserve" fill-rule="evenodd" stroke-linejoin="round" stroke-miterlimit="2" clip-rule="evenodd" viewBox="0 0 16 16"><path fill-rule="nonzero" d="M0 0v16h16V0H0Zm11.361 1.21c.063.055.189.174.28.263.25.243.283.337.227.613-.018.084-.052.37-.075.637a7.638 7.638 0 0 1-.067.573c-.022.092-.227 1.49-.333 2.283-.046.351-.06.494-.06.667 0 .188-.007.264-.052.51-.088.49-.158 1.19-.208 2.08-.021.352-.023.462-.01.484.013.02.018.117.018.298 0 .26.008.413.075 1.434.053.832.161 1.935.244 2.492.03.2.037.305.037.546 0 .418.002.412-.264.631-.201.168-.201.168-.281.168h-.079l-.148-.136-.146-.137v-.19c0-.139-.01-.24-.036-.377a5.563 5.563 0 0 1-.053-.323.895.895 0 0 0-.052-.207c-.039-.085-.045-.138-.074-.69-.033-.604-.036-.64-.068-.632-.036.009-.032.047-.103-.767-.084-.975-.089-1.066-.089-1.978.002-.837.014-1.265.046-1.605.03-.302.005-.281-.16.137-.244.626-.382.948-.537 1.256-.168.332-.212.396-.341.481-.037.026-.14.101-.23.168-.089.068-.23.157-.312.198l-.15.076h-.3c-.284 0-.309-.003-.487-.046-.447-.108-.917-.375-1.459-.83a3.832 3.832 0 0 1-.37-.336c-.037-.055-.05-.062-.101-.062-.067 0-.068.006-.036.14.01.05.033.28.046.509.028.455.031.383-.038 1.492-.028.459-.071.806-.11.889-.012.023-.066.1-.123.17-.129.16-.219.215-.33.2a.328.328 0 0 1-.117-.042l-.111-.083c-.045-.034-.073-.068-.08-.096a36.756 36.756 0 0 1-.003-1.238 36.5 36.5 0 0 0-.003-1.236.14.14 0 0 0-.033-.06c-.026-.02-.06-.186-.084-.408-.014-.13-.025-.185-.052-.231-.034-.056-.036-.074-.036-.302 0-.246-.028-.513-.11-1.074l-.048-.316c-.008-.055-.02-.073-.095-.133-.098-.08-.12-.128-.154-.32-.022-.132-.031-.41-.012-.429.005-.005.024-.001.043.01.03.022.033.02.042-.021.008-.045.026-.052.115-.045.033.003.04-.003.045-.038.004-.037.01-.042.054-.042.037 0 .054-.007.061-.03.007-.019.049-.048.104-.072.08-.036.106-.042.198-.036.135.008.221.048.423.197l.152.115.116.24.24.497c.174.363.404.704.632.941.47.486.81.775 1.022.868.07.031.134.065.143.077.016.024.508.262.539.262.01 0 .073-.051.138-.115.114-.108.286-.347.333-.46.01-.025.03-.047.042-.047.016 0 .022-.016.022-.059 0-.05.006-.062.037-.074.032-.012.037-.022.037-.089 0-.06.007-.081.035-.11.029-.025.039-.05.042-.114.003-.065.01-.083.037-.095.022-.008.034-.03.041-.077.005-.034.063-.179.128-.321.064-.142.117-.273.117-.289 0-.02.015-.038.037-.049.031-.013.037-.026.037-.081 0-.054.004-.064.028-.064.033 0 .052-.044.039-.089-.015-.044.004-.086.041-.092.03-.004.033-.012.028-.081-.004-.065 0-.08.033-.111a.131.131 0 0 0 .041-.094c.003-.049.01-.06.039-.063.03-.005.032-.012.032-.126 0-.151.07-.393.17-.59.038-.073.075-.164.084-.204.01-.052.023-.074.044-.08.022-.006.028-.021.028-.074 0-.055.006-.072.037-.09.031-.022.037-.036.037-.103s.006-.086.039-.116c.034-.03.037-.043.03-.1-.01-.077.045-.28.103-.381.031-.052.036-.08.036-.2 0-.125.004-.15.046-.236.052-.11.077-.209.11-.435a.524.524 0 0 1 .066-.227c.049-.077.071-.164.133-.532.026-.146.058-.296.074-.335a.941.941 0 0 0 .045-.266c.018-.228.012-.202.1-.575.063-.276.076-.31.12-.311.011 0 .017-.024.017-.065 0-.06.006-.07.064-.114a1.87 1.87 0 0 0 .329-.295c.047-.058.094-.104.108-.104.012 0 .072.045.134.1Z"/></svg>