<svg viewBox="0 0 3257 947" xmlns="http://www.w3.org/2000/svg" xml:space="preserve" fill-rule="evenodd" clip-rule="evenodd" stroke-linejoin="round" stroke-miterlimit="2"><path fill="none" d="M0 0h3256.09v946.767H0z"/><clipPath id="a"><path d="M0 0h3256.09v946.767H0z"/></clipPath><g clip-path="url(#a)"><path d="M1616.35 939.956c-8.975-14.04-10.833-26.488-10.384-69.561.233-22.301 1.466-53.266 2.74-68.81 2.512-30.645 2.857-309.71.454-367.9-.784-18.988-.776-34.522.009-34.52.792.002 1.516-11.832 1.607-26.297.088-14.466-.722-26.302-1.809-26.302-1.088 0-4.148 6.658-6.802 14.795s-8.899 22.191-13.877 31.232c-10.697 19.426-17.226 34.694-22.244 52.02-2.013 6.95-4.592 13.771-5.732 15.158-1.139 1.386-6.489 15.047-11.888 30.357-5.399 15.31-10.791 29.657-11.982 31.882-3.588 6.703-27.697 24.006-33.45 24.006-9.527 0-27.969-17.813-49.484-47.8-6.321-8.811-12.18-17.828-13.019-20.039-2.26-5.956-51.927-62.601-60.87-69.422-8.885-6.777-13.6-4.963-9.822 3.779 2.591 5.993 6.593 40.11 7.945 67.729 5.774 117.91 5.522 142.78-1.627 160.7-3.293 8.255-20.541 21.22-28.229 21.22-6.265 0-16.126-9.353-19.513-18.507-.916-2.478-.983-19.301-.148-37.383 2.547-55.063-2.838-144.8-10.982-183.01-5.106-23.954-12.997-87.507-13.043-105.03-.022-11.244.501-12.392 9.871-21.37 7.686-7.364 11.559-9.487 17.31-9.487 14.676 0 28.464 11.317 44.815 36.784 3.651 5.686 20.082 22.617 36.513 37.623 36.344 33.192 49.843 47.608 69.483 74.201 8.303 11.242 16.275 20.049 17.714 19.571 1.44-.479 3.464-5.474 4.498-11.101 1.035-5.627 2.761-10.23 3.836-10.23 1.075 0 1.954-1.357 1.954-3.014 0-2.844 12.849-33.104 17.552-41.34 1.196-2.093 2.174-5.298 2.174-7.123 0-1.824.986-3.317 2.192-3.317 1.205 0 2.192-1.776 2.192-3.945 0-2.17.838-4.882 1.865-6.028 1.026-1.145 4.561-8.986 7.855-17.424 6.916-17.713 11.718-29.078 14.573-34.49 1.104-2.094 2.008-6.72 2.008-10.282 0-3.562.985-7.085 2.191-7.83 1.206-.746 2.192-4.197 2.192-7.671s.849-6.841 1.886-7.482 2.464-5.384 3.172-10.54c1.446-10.536 14.074-49.556 17.389-53.73 1.184-1.492 1.58-4.204.88-6.028-.7-1.823-.317-3.315.851-3.315s2.123-2.345 2.123-5.212c0-2.866 1.573-9.03 3.496-13.698 9.695-23.532 15.741-37.267 19.896-45.199 1.736-3.315 2.361-6.042 1.389-6.061-.973-.017-.662-.758.69-1.643 1.351-.886 4.665-11.474 7.364-23.528 4.763-21.27 15.938-47.123 20.37-47.123 1.2 0 4.284-2.267 6.852-5.038 6.94-7.489 20.173-5.67 31.921 4.386 16.773 14.356 18.86 28.058 9.845 64.621-3.065 12.433-8.908 48.249-12.985 79.591-9.045 69.537-11.301 123.35-14.423 344.1-2.024 143.08-4.196 194.47-10.749 254.24-1.19 10.849-2.812 37.972-3.606 60.273-1.355 38.076-1.76 40.973-6.642 47.525-2.859 3.837-5.199 7.674-5.199 8.527 0 .853-2.147 5.849-4.772 11.105-5.9 11.813-11.88 12.595-18.394 2.404h.008v.001Zm14.399-25.104c0-1.489 1.969-5.937 4.375-9.884 4.056-6.651 4.389-11.262 4.568-63.065.099-30.74.929-75.123 1.83-98.629.9-23.507.885-43.743-.022-44.969-.917-1.227-.996-17.842-.177-36.923.819-19.081.749-35.149-.154-35.707-1.817-1.121-2.294-21.293-.545-23.041.604-.604 1.182-70.296 1.284-154.87.099-84.575.96-154.25 1.905-154.84.947-.584 2.395-14.151 3.221-30.149 2.564-49.687 12.417-124.42 18.473-140.11 3.453-8.948 5.662-32.532 3.046-32.532-4.975 0-14.361 21.727-17.043 39.451-.821 5.425-8.291 25.826-16.601 45.336-8.311 19.51-15.11 36.524-15.11 37.808 0 1.284 1.233 2.339 2.74 2.345 1.507.007 5.51 2.228 8.895 4.937 5.96 4.77 6.165 5.62 6.47 26.838.172 12.052-.835 57.419-2.242 100.82-1.406 43.397-2.604 110.46-2.663 149.04-.066 38.574-1.063 91.834-2.23 118.35-1.167 26.516-3.125 73.862-4.35 105.2-1.226 31.342-3.733 65.369-5.573 75.616-1.839 10.246-3.908 36.876-4.598 59.177-.689 22.301-2.088 43.833-3.107 47.848-2.127 8.378.969 17.286 6.416 18.464 4.465.965 11.201-2.952 11.201-6.513h-.009v.002Zm-271.78-286.84c0-1.497 1.062-3.076 2.357-3.508 3.608-1.203-1.514-143.9-6.628-184.68-2.275-18.139-4.81-40.13-5.634-48.87l-1.498-15.89h8.29c6.703 0 11.375 2.363 24.406 12.344 23.951 18.345 56.851 54.332 80.56 88.12 25.653 36.558 30.349 42 36.241 42 9.562 0 24.702-20.219 27.279-36.428.736-4.631 2.293-9.376 3.461-10.544 1.168-1.168 2.123-3.774 2.123-5.792s2.346-7.985 5.213-13.26c5.598-10.299 9.313-24.946 5.773-22.759-1.154.713-3.327 5.447-4.829 10.52-1.503 5.073-5.968 15.907-9.924 24.075-3.955 8.169-7.192 15.628-7.192 16.576 0 .949-2.851 4.455-6.335 7.794-6.017 5.764-6.651 5.905-12.603 2.809-8.101-4.215-55.581-63.349-55.581-69.224 0-1.181-2.092-3.613-4.65-5.404-6.669-4.671-53.247-48.312-68.137-63.84-6.935-7.233-13.253-15.123-14.039-17.534-2.729-8.369-14.224-20.822-19.22-20.822-7.328 0-10.119 4.211-10.098 15.233.022 15.259 8.384 84.884 12.111 100.93 7.284 31.359 11.87 142.71 7.667 186.17-1.1 11.382-1.463 21.566-.805 22.63 1.48 2.396 11.692-6.904 11.692-10.649v.003Zm211.37-258.69c1.97-7.852-.318-9.4-3.096-2.094-2.747 7.227-2.771 7.832-.298 7.832 1.074 0 2.602-2.582 3.394-5.738Zm16.907-41.957c1.994-4.507 5.267-14.112 7.272-21.345 2.005-7.233 5.058-17.129 6.785-21.991 1.726-4.862 3.139-10.829 3.139-13.26 0-2.431.951-5.371 2.113-6.533 2.911-2.911 3.875-16.071 1.174-16.025-1.205.022-6.693 16.487-12.196 36.594-5.502 20.107-11.122 39.763-12.488 43.681-3.416 9.792-.255 8.949 4.201-1.121ZM332.626 805.101c-7.649-7.834-8.118-9.125-8.159-22.466-.024-7.785-1.603-22.537-3.509-32.784-1.905-10.246-4.645-34.903-6.087-54.794-1.443-19.89-3.288-37.643-4.101-39.451-2.667-5.931-7.983-76.873-9.279-123.83-.699-25.315-.49-66.493.463-91.508.954-25.014 1.222-45.48.596-45.479-.626.002-5.966 14.057-11.867 31.235-5.902 17.178-15.035 41.095-20.297 53.15-8.29 18.994-11.517 23.769-24.195 35.8-21.124 20.045-27.655 22.866-50.763 21.929-15.779-.64-21.33-1.932-33.97-7.91-20.658-9.768-38.113-22.671-62.554-46.241-11.372-10.967-20.922-19.695-21.222-19.395-.299.299.259 14.337 1.241 31.194 1.861 31.969-.338 96.308-4.376 127.98-1.825 14.316-3.769 20.488-8.717 27.681-9.536 13.86-16.826 15.523-26.675 6.087l-6.148-5.89v-73.671c0-45.325-.829-74.499-2.154-75.825-2.594-2.594-6.151-27.986-8.723-62.283-4.668-62.218-9.852-85.479-19.051-85.479-2.273 0-2.948-5.019-2.948-21.917 0-12.055.74-21.801 1.644-21.658 4.724.745 8.934-.674 12.875-4.347 12.528-11.671 22.292-11.871 36.968-.755 10.129 7.671 11.916 10.556 24.109 38.921 17.591 40.919 26.213 55.504 46.928 79.376 24.906 28.703 36.97 38.586 67.628 55.402l9.332 5.118 7.207-6.986c8.086-7.836 23.443-36.444 23.443-43.669 0-2.588.986-5.316 2.192-6.061 1.205-.745 2.191-3.68 2.191-6.522s.74-5.496 1.644-5.898c.904-.401 4.585-9.607 8.18-20.456 3.594-10.849 8.269-22.944 10.389-26.878 2.12-3.933 4.486-11.106 5.259-15.939.773-4.832 2.262-9.316 3.309-9.963 1.047-.647 1.904-3.091 1.904-5.431s.986-4.254 2.192-4.254c1.205 0 2.212-4.192 2.238-9.315.024-5.123 2.583-16.219 5.684-24.657 3.101-8.438 5.854-17.048 6.119-19.133.265-2.085 1.159-4.469 1.987-5.297.828-.828 1.506-3.807 1.506-6.62s.986-5.114 2.191-5.114c1.206 0 2.192-2.301 2.192-5.114 0-2.813.654-5.768 1.453-6.567.799-.8 1.77-4.359 2.159-7.912.389-3.553 2.187-10.707 3.995-15.899 1.809-5.191 3.302-12.58 3.32-16.419.018-3.84 1.101-9.758 2.407-13.151 1.307-3.394 3.335-12.054 4.508-19.245 1.172-7.192 2.964-14.096 3.981-15.343 1.017-1.246 3.483-12.623 5.48-25.28 1.997-12.657 4.561-23.95 5.698-25.095 1.137-1.146 2.067-7.908 2.067-15.029 0-14.796 6.063-50.44 9.807-57.657 1.382-2.664 8.279-11.072 15.327-18.684l12.814-13.841 14.769 15.987c16.082 17.408 19.768 26.176 17.191 40.895-.844 4.822-2.193 19.123-2.998 31.781-.805 12.657-2.372 28.438-3.482 35.068-4.605 27.502-20.014 156.62-21.841 183.01-1.085 15.671-3.489 40.821-5.342 55.89-10.436 84.854-7.093 218.21 8.915 355.59 1.931 16.565 3.162 38.473 2.736 48.684l-.773 18.564-10.877 11.042c-6.158 6.251-12.858 11.041-15.445 11.041-2.513 0-8.221-3.74-12.685-8.311v-.002Zm19.56-14.819c4.726-7.214 4.253-27.484-1.505-64.54-7.119-45.809-16.78-144.39-18.581-189.59-.72-18.081-2.153-40.766-3.183-50.41-1.131-10.584-1.037-21.878.236-28.493 2.439-12.667.706-27.047-2.832-23.508-3.338 3.337 1.443 192.17 5.617 221.86 1.779 12.657 4.378 48.164 5.775 78.903 1.397 30.739 2.913 57.123 3.367 58.63 1.381 4.575 7.22 3.073 11.106-2.857v.005Zm-298.59-167c3.294-11.06 3.644-21.186 2.862-82.738-.596-46.925-1.982-77.39-4.188-92.054-2.044-13.589-2.554-23.375-1.342-25.753 4.53-8.885 11.663-4.467 43.191 26.751 16.989 16.822 36.946 34.699 44.347 39.725 17.736 12.044 37.875 19.877 49.056 19.08l8.767-.626-14.847-8.206c-24.501-13.543-46.583-31.665-65.776-53.98-33.007-38.377-49.43-65.668-64.136-106.58-5.064-14.088-6.968-16.438-13.316-16.438-4.931 0-5.211.737-5.21 13.699 0 7.534 1.385 21.095 3.078 30.136 1.693 9.041 3.777 31.726 4.63 50.411.854 18.684 2.533 38.903 3.732 44.931 1.199 6.027 3.055 29.205 4.124 51.506 1.07 22.301 2.525 48.281 3.233 57.734 1.166 15.555-2.836 50.745-7.007 61.615-.805 2.096-.09 3.389 1.874 3.389 1.969 0 4.601-4.787 6.928-12.603v.001Zm188.72-147.4c.745-1.205.31-2.192-.967-2.192-1.276 0-2.321.986-2.321 2.192 0 1.206.435 2.192.967 2.192.531 0 1.576-.986 2.321-2.192Zm89.778-77.247c.809-9.952 2.821-31.902 4.471-48.779 1.65-16.876 3.625-44.985 4.39-62.465.764-17.479 2.399-37.205 3.632-43.835 2.094-11.259 6.291-45.742 10.537-86.574 1.003-9.643 2.842-23.118 4.087-29.942 1.244-6.825 2.861-22.112 3.594-33.972.732-11.861 1.865-26.002 2.518-31.427.771-6.404.441-9.094-.942-7.671-2.996 3.084-9.19 25.676-9.19 33.52 0 3.6-1.866 15.777-4.147 27.06-2.28 11.283-4.851 28.405-5.711 38.049-.861 9.643-3.967 23.924-6.903 31.734-6.108 16.25-13.924 50.203-13.924 60.491 0 3.824-3.472 14.571-7.716 23.883-9.822 21.554-23.003 59.318-22.852 65.471.068 2.814 2.843-1.255 6.868-10.075 7.256-15.899 10.563-17.759 20.268-11.4 9.572 6.272 10.769 13.368 9.148 54.263-.821 20.726-2.086 41.032-2.812 45.124-.861 4.861-.533 6.955.947 6.04 1.247-.77 2.928-9.543 3.737-19.495Zm2078.5 270.75c-4.464-3.358-9.866-9.311-12.005-13.229-2.138-3.918-4.65-7.123-5.581-7.123s-1.693-1.915-1.693-4.255c0-2.339-.986-4.863-2.192-5.608-1.206-.746-2.192-3.598-2.192-6.34 0-2.741-.651-5.636-1.447-6.431-4.213-4.213 2.566-63.907 9.195-80.971 1.766-4.545 3.211-11.144 3.211-14.665 0-3.521.985-7.011 2.192-7.756 1.205-.746 2.191-3.104 2.191-5.241 0-3.374-1.6-3.754-12.134-2.881-11.964.992-12.257.875-20.822-8.403-4.778-5.175-8.687-11.16-8.687-13.299 0-2.139-.893-4.442-1.986-5.117-2.828-1.748 1.876-16.664 7.118-22.57 5.918-6.668 22.791-12.485 45.826-15.799 10.548-1.518 19.178-3.644 19.178-4.725 0-1.08 1.48-1.964 3.288-1.964 1.808 0 3.292-1.233 3.297-2.74 0-1.507 2.785-5.698 6.175-9.315 3.39-3.616 6.324-7.325 6.52-8.242.987-4.611 7.237-14.266 12.292-18.989 3.128-2.922 5.688-6.128 5.688-7.123 0-.995-7.768-1.81-17.261-1.81-18.23 0-31.409 4.271-50.639 16.41-4.798 3.029-11.175 5.508-14.171 5.508-6.696 0-20.941-12.082-20.941-17.761 0-2.286-.986-4.157-2.192-4.157-1.206 0-2.192-2.465-2.192-5.479 0-3.014.986-5.479 2.192-5.479 1.205 0 2.192-1.885 2.192-4.189 0-2.304 3.205-6.706 7.123-9.783 3.918-3.077 8.624-6.863 10.458-8.414 1.834-1.551 8.738-5.285 15.342-8.299 6.604-3.014 12.336-6.219 12.738-7.123.401-.905 2.563-1.644 4.802-1.644 2.239 0 4.681-.986 5.426-2.192 2.046-3.31 65.267-2.707 83.287.796 19.267 3.744 34.502 11.142 39.15 19.012 8.612 14.578.68 35.429-21.543 56.64l-12.206 11.649 1.411 13.776c1.727 16.853-1.624 23.734-15.982 32.818-5.396 3.414-12.209 9.831-15.141 14.26-6.892 10.416-26.124 63.268-31.659 87.009-8.25 35.381-4.604 46.544 12.374 37.888 4.597-2.344 10.041-4.262 12.096-4.262 2.056 0 4.066-.784 4.468-1.744 1.341-3.203 38.114-13.598 48.103-13.598 8.14 0 11.26 1.29 17.952 7.419 9.748 8.929 10.073 13.352 1.807 24.581-9.244 12.555-17.036 19.044-34.9 29.06-21.802 12.224-32.787 15.066-64.351 16.647l-27.057 1.355-8.118-6.108Zm43.401-12.949c11.936-4.367 22.639-8.805 23.784-9.863 1.145-1.058 3.858-1.924 6.028-1.924 2.169 0 3.945-.986 3.945-2.192 0-1.205 1.972-2.191 4.383-2.191s4.384-.986 4.384-2.192c0-1.206 1.358-2.192 3.019-2.192s4.247-1.479 5.748-3.288c4.171-5.025.769-4.105-24.134 6.533-27.085 11.569-34.138 12.188-44.191 3.878-9.291-7.68-14.796-14.096-14.889-17.351-.033-1.406-1.057-2.886-2.26-3.288-4.775-1.594-1.639-55.767 3.976-68.675 3.789-8.712 14.636-43.581 14.101-45.331-.3-.985.44-1.791 1.644-1.791 1.206 0 2.196-1.726 2.2-3.836 0-2.109 1.972-7.056 4.372-10.993 2.4-3.937 4.21-7.882 4.022-8.767-1.419-6.667 13.12-25.69 21.18-27.713 4.319-1.084 5.486-2.767 5.486-7.91 0-3.594-.985-6.534-2.192-6.534-3.043 0-2.762-6.02.329-7.05 1.386-.463 2.067-2.202 1.512-3.866-.572-1.718-6.462 5.578-13.635 16.893-14.584 23.004-20.311 26.561-51.425 31.934-18.355 3.17-28.927 8.116-17.347 8.116 3.183 0 6.398-.986 7.143-2.192 2.732-4.42 19.432-2.312 25.753 3.252 7.959 7.005 7.824 14.789-.684 39.624-10.707 31.249-19.535 72.285-19.564 90.939-.022 13.469 1.036 18.687 5.671 27.989 4.766 9.562 13.012 17.456 18.628 17.832.721.045 11.077-3.485 23.013-7.851Zm30.469-239.73c.746-1.206.31-2.192-.967-2.192s-2.321.986-2.321 2.192c0 1.205.435 2.192.967 2.192s1.576-.986 2.321-2.192Zm25.03-25.643c6.124-6.871 11.134-13.161 11.134-13.978 0-4.08-8.258-6.408-38.694-10.904-32.031-4.732-33.739-4.776-47.892-1.22-22.466 5.643-51.494 21.437-51.494 28.018 0 3.316 6.699 1.865 11.336-2.456 2.518-2.345 11.107-7.001 19.086-10.346 12.851-5.387 17.281-6.09 38.771-6.146 22.88-.067 24.783.28 33.424 5.994 8.209 5.428 9.162 6.967 9.162 14.794 0 4.805.908 8.736 2.016 8.736s7.027-5.621 13.151-12.492Zm-778.35 275.44c-16.675-4.782-36.239-27.011-45.458-51.651-2.434-6.506-6.01-23.916-7.946-38.688-3.367-25.696-3.319-28.755 1.111-70.693 6.077-57.56 6.806-62.465 9.276-62.465 1.15 0 1.547-.879.881-1.956-1.617-2.618 8.335-24.853 12.774-28.537 1.936-1.606 3.519-3.917 3.519-5.135 0-3.363 8.942-10.399 13.217-10.399 3.669 0 18.674 2.915 52.535 10.206 24.183 5.207 48.041 23.979 55.971 44.039 4.231 10.703 2.772 25.139-1.714 16.956-9.756-17.798-27.024-31.189-46.304-35.909-11.415-2.794-16.257-1.31-9.048 2.773 9.894 5.603 28.696 27.616 32.39 37.92 4.233 11.811 5.081 34.727 1.37 37.021-1.639 1.014-1.922 7.572-.889 20.62 1.189 15.025.698 22.041-2.286 32.675-2.09 7.448-3.269 14.072-2.621 14.72 2.829 2.83 14.775-44.939 14.775-59.084 0-3.899.941-8.031 2.092-9.181 1.15-1.15 3.562-8.395 5.359-16.099 4.334-18.58 6.899-20.774 10.193-8.718 3.633 13.3 1.37 77.497-3.35 95.072-11.052 41.143-34.819 71.067-65.074 81.931-15.169 5.448-23.45 6.681-30.772 4.582h-.001Zm21.827-32.791c.301-.009.548-.904.548-1.978 0-1.075-2.56-2.597-5.689-3.382-10.114-2.538-19.209-14.775-29.429-39.595-6.143-14.917-9.788-38.803-9.426-61.756.391-24.688 5.816-68.205 9.516-76.324 1.098-2.411 2.278-7.335 2.622-10.943.456-4.79 2.399-7.425 7.201-9.771 5.674-2.771 5.983-3.334 2.254-4.106-6.87-1.421-14.776 10.35-21.332 31.762-8.509 27.795-12.141 45.131-14.156 67.577-2.09 23.273-2.04 23.845 4.735 54.259 6.96 31.245 14.93 48.821 25.061 55.262 7.319 4.652 8.455 4.781 17.684 1.995 5.425-1.637 10.11-2.987 10.411-3Zm5.006-37.795c1.85-1.527 5.334-6.228 7.743-10.447 3.976-6.965 5.949-12.52 15.506-43.678 4.637-15.114 3.87-53.868-1.29-65.234-4.087-9.002-16.82-18.21-25.183-18.21-5.849 0-10.534 10.564-16.829 37.948-4.851 21.106-6.156 32.226-6.219 53.01-.087 29.846 1.811 39.071 9.828 47.69 5.79 6.225 7.755 6.096 16.444-1.079Zm37.185-6.064c0-1.205-.435-2.192-.967-2.192s-1.576.986-2.321 2.192c-.746 1.205-.31 2.192.967 2.192 1.276 0 2.321-.986 2.321-2.192Zm-867.05 72.351c-12.308-5.864-26.246-21.627-34.252-38.735-6.47-13.828-6.678-15.237-6.361-43.133.364-31.958 1.967-47.469 4.907-47.469 1.069 0 1.943-2.407 1.943-5.349 0-2.943 1.044-5.996 2.321-6.785 1.277-.79 2.047-3.56 1.712-6.157-.336-2.597.056-5.788.866-7.091.813-1.302 3.099-7.22 5.082-13.15 3.373-10.087 5.429-15.27 13.216-33.322 1.707-3.958 3.104-8.522 3.104-10.142 0-1.62 1.537-4.22 3.415-5.779 1.878-1.558 4.817-5.871 6.531-9.583 4.437-9.608 7.093-13.428 21.393-30.764 9.802-11.883 16.25-17.277 28.197-23.589 22.127-11.69 27.083-12.188 42.622-4.288 7.1 3.61 16.308 10.105 20.463 14.433 4.154 4.328 8.878 7.87 10.498 7.87 5.164 0 18.994 8.14 25.544 15.035 6.092 6.414 6.281 7.244 4.896 21.571-.792 8.195-2.347 27.722-3.456 43.393-1.224 17.301-4.302 37.531-7.836 51.506-5.176 20.47-5.672 25.623-4.481 46.637 1.559 27.514 5.292 38.578 15.693 46.511 11.126 8.486 10.484 17.494-2.072 29.068-16.275 15.001-30.715 14.934-44.672-.208-4.671-5.067-10.409-13.362-12.751-18.432-2.342-5.07-5.39-9.244-6.772-9.275-1.381-.022-5.676 3.546-9.542 7.95-9.093 10.356-25.128 22.731-35.923 27.724-13.061 6.04-33.372 6.752-44.284 1.552l-.001.001Zm137.3-25.284c3.557-1.84 6.467-4.297 6.467-5.461 0-1.164-3.369-6.529-7.486-11.923-4.117-5.394-9.788-15.511-12.602-22.484-4.708-11.665-5.101-15.69-4.912-50.348.164-29.885.9-38.729 3.564-42.795 2.46-3.755 3.789-14.616 4.974-40.645l1.615-35.521-5.733-2.179c-3.153-1.199-11.402-8.192-18.33-15.538-16.189-17.169-24.729-19.049-43.465-9.569-23.247 11.762-43.008 41.404-58.084 87.129-7.26 22.02-7.088 21.172-4.296 21.172 1.151 0 2.747-3.698 3.547-8.219.8-4.52 5.283-16.375 9.962-26.343 4.679-9.969 8.508-19.48 8.508-21.135 0-1.656 1.479-3.579 3.287-4.273 1.809-.694 3.288-2.806 3.288-4.695 0-5.854 21.23-35.382 23.678-32.934.628.629 4.298-1.267 8.158-4.211 14.312-10.916 24.096-9.082 38.889 7.292 14.316 15.847 17.747 26.208 11.107 33.546-3.29 3.635-3.395 6.653-1.071 30.857 1.417 14.755 2.564 32.551 2.551 39.546-.039 18.152-5.792 41.038-13.298 52.873-7.819 12.331-7.868 13.059-1.079 16.152 6.151 2.803 11.125 11.453 15.858 27.577 4.098 13.962 10.976 25.472 15.219 25.472 1.77 0 6.128-1.505 9.685-3.343h-.001Zm-109.7-3.018c0-1.087 3.119-3.064 6.931-4.393 3.812-1.329 6.414-2.932 5.783-3.563-.631-.631-3.892-.1-7.246 1.171-9.656 3.671-18.511-.658-27.933-13.66-4.521-6.237-8.219-12.916-8.219-14.842 0-1.926-1.233-4.735-2.74-6.243-1.946-1.947-2.682-11.44-2.541-32.767.108-16.514-.533-27.559-1.426-24.546-.893 3.014-1.746 9.918-1.896 15.343-.15 5.424-1.298 14.301-2.551 19.725-1.624 7.023-1.546 15.045.267 27.861 2.15 15.185 3.759 19.551 10.298 27.944 7.482 9.604 8.157 9.948 19.511 9.948 6.469 0 11.762-.89 11.762-1.978Zm16.197-37.093c11.7-9.646 34.196-39.583 34.208-45.523.002-1.321 1.647-5.693 3.653-9.715 2.007-4.022 4.398-14.776 5.314-23.898.916-9.122 3.207-22.01 5.093-28.641 1.885-6.63 3.439-14.534 3.453-17.566.018-3.032 2.013-9.218 4.441-13.748 4.148-7.74 4.201-8.647.883-15.063-4.449-8.604-13.623-17.211-18.221-17.094-10.491.266-26.585 24.234-46.182 68.78-21.481 48.827-27.758 85.635-18.623 109.21 2.715 7.009 12.326 4.515 25.981-6.743v.001Zm-46.915-76.544c-.028-4.387-.566-5.186-1.989-2.938-1.075 1.698-1.448 4.411-.828 6.027 1.779 4.635 2.853 3.456 2.817-3.089Zm2254.5 142.12c-3.465-2.284-7.746-7.455-9.513-11.492-1.768-4.036-4.144-9.104-5.28-11.261-1.136-2.156-3.056-11.526-4.266-20.821-1.21-9.295-2.911-20.188-3.778-24.207l-1.578-7.307-8.752 7.042c-12.062 9.705-37.832 21.818-46.417 21.818-12.149 0-28.027-7.805-38.755-19.051-5.529-5.796-10.075-11.77-10.103-13.277-.022-1.507-.923-2.74-1.99-2.74-2.578 0-4.612-18.647-4.543-41.643.065-22.478 1.86-37.26 4.52-37.26 1.079 0 1.962-2.407 1.962-5.35 0-2.943.873-5.889 1.939-6.549 1.067-.659 2.606-5.648 3.422-11.087.815-5.44 2.332-9.89 3.37-9.89 1.039 0 3.059-3.55 4.491-7.888 1.432-4.338 5.946-13.803 10.033-21.032 4.086-7.23 7.43-14.036 7.43-15.126 0-1.089.879-1.981 1.954-1.981 1.074 0 2.527-2.284 3.228-5.075 2.289-9.121 28.73-37.439 50.059-53.611 11.485-8.708 21.919-15.834 23.185-15.834 1.267 0 2.632-.74 3.034-1.644.401-.904 6.155-3.975 12.785-6.825 6.63-2.849 13.767-6.055 15.86-7.123 6.513-3.323 24.26-2.205 30.278 1.908 3.074 2.102 9.857 8.506 15.073 14.232 5.216 5.726 11.207 10.411 13.314 10.411 2.429 0 4.265 2.204 5.018 6.027 2.267 11.501-.36 16.658-11.704 22.986-11.899 6.637-11.457 5.551-15.216 37.336-1.393 11.78-4.914 30.027-7.825 40.548-5.024 18.16-5.294 22.315-5.319 82.061-.022 57.801.329 63.838 4.356 74.052 5.843 14.825 5.468 19.489-2.251 27.975-13.989 15.377-26.555 19.237-38.021 11.678Zm13.062-23.796c6.097-4.127 7.135-10.139 3.113-18.024-4.847-9.501-5.897-16.609-9.856-66.727-3.073-38.904-1.894-67.387 3.273-79.049 1.068-2.411 2.583-9.561 3.366-15.89.785-6.329 2.318-11.507 3.41-11.507s1.987-6.328 1.987-14.063c0-8.468.981-14.391 2.464-14.886 1.428-.476 2.722-7.24 3.075-16.073.901-22.57 3.035-31.689 7.417-31.689 4.745 0 8.961-4.22 8.961-8.971 0-8.674-17.51-8.495-44.258.452-28.395 9.497-36.147 13.886-50.092 28.357-10.639 11.039-13.846 16.689-25.635 45.156-23.505 56.757-32.823 92.969-30.574 118.82 1.679 19.308 4.735 27.15 12.331 31.637 11.788 6.963 27.162 4.532 43.983-6.954l7.671-5.238-6.576 1.84c-13.251 3.707-22.96 1.836-31.021-5.977-11.9-11.534-13.909-17.534-13.909-41.524 0-11.799.856-21.981 1.903-22.628 1.047-.647 2.575-7.116 3.396-14.376.821-7.259 2.184-13.208 3.029-13.218.844-.009 3.398-5.995 5.675-13.299 2.278-7.305 5.237-14.447 6.576-15.872 1.339-1.425 4.264-7.947 6.5-14.493 2.237-6.546 6.675-15.866 9.863-20.712 6.498-9.875 25.443-29.851 28.311-29.851 1.026 0 3.826-1.726 6.225-3.835 6.379-5.612 13.417-9.315 17.701-9.315 6.661 0 18.216 13.241 18.216 20.874 0 7.066-8.388 29.96-15.238 41.591-3.23 5.483-3.575 8.942-2.076 20.822 6.32 50.112 4.676 71.76-6.739 88.765-3.237 4.822-6.552 9.916-7.368 11.32-.877 1.509 1.569 4.438 5.985 7.167 4.107 2.539 7.992 5.982 8.633 7.653.64 1.67 2.246 15.212 3.567 30.092 2.978 33.547 8.021 45.506 16.711 39.624v.001Zm-61.388-95.925c6.882-6.72 11.887-13.531 11.887-16.179 0-2.515.879-4.573 1.954-4.573 2.515 0 4.039-6.288 9.214-38.009 2.329-14.275 5.207-27.771 6.396-29.992 1.189-2.222 2.141-13.227 2.116-24.457l-.044-20.418-9.595 10.959c-17.206 19.652-45.908 82.703-51.875 113.96-1.404 7.354-1.33 12.779.226 16.536 1.99 4.804 3.409 5.464 10.075 4.686 5.747-.67 10.842-3.915 19.646-12.511v-.002Zm-2559.2 101.44c-7.868-8.188-19.542-27.439-19.542-32.223 0-2.469-.872-4.489-1.936-4.489-1.065 0-2.452-1.972-3.083-4.383-.63-2.411-1.985-4.384-3.011-4.384-1.025 0-6.789 5.838-12.807 12.974-12.808 15.185-32.59 26.568-48.892 28.135-30.441 2.925-62.178-37.545-70.412-89.786-3.162-20.061-3.294-67.296-.211-75.157 1.419-3.616 2.6-7.068 2.625-7.671.024-.603 1.279-4.055 2.788-7.671 1.508-3.617 3.982-11.753 5.498-18.082 1.516-6.329 3.644-11.507 4.729-11.507s1.974-1.322 1.974-2.937c0-11.411 26.591-48.711 42.349-59.405 10.267-6.967 23.835-7.464 33.266-1.219 8.708 5.767 14.249 5.461 20.504-1.133 11.286-11.9 42.374-2.451 48.351 14.695 1.487 4.264 2.389 29.888 2.409 68.408.039 73.449.445 75.725 21.832 122.21 19.709 42.839 19.847 49.743 1.385 69.24-10.436 11.023-19.991 12.529-27.816 4.384v.001Zm-85.554-21.724c8.591-5.133 17.792-12.797 17.794-14.822.001-.694-4.903-.921-10.898-.506-10.605.734-11.2.448-21.919-10.557-6.061-6.222-11.019-13.137-11.019-15.367 0-2.23-1.001-4.389-2.225-4.797-1.223-.407-4.918-8.133-8.211-17.168-5.672-15.567-5.986-18.455-5.994-55.12-.004-21.281-.627-38.311-1.382-37.845-4.196 2.588-6.625 25.108-6.393 59.26.223 32.733.912 39.646 5.408 54.218 6.098 19.762 16.392 36.702 26.072 42.903 8.704 5.575 9.111 5.57 18.767-.199Zm101.08-13.006c0-3.491-6.861-19.777-15.343-36.418-8.438-16.556-15.342-32.348-15.342-35.093 0-2.745-.986-4.991-2.192-4.991-1.205 0-2.191-3.748-2.191-8.328 0-4.581-1.056-9.384-2.345-10.674-1.555-1.555-2.331-22.802-2.303-63.049.031-46.23-.585-60.496-2.587-59.833-4.866 1.611-6.648 71.84-2.919 115.01l3.276 37.915-5.302 9.272c-5.447 9.527-6.706 13.654-3.574 11.718 5.747-3.552 24.196 17.078 33.361 37.303 3.351 7.396 7.418 13.908 9.037 14.471 5.293 1.841 8.424-.875 8.424-7.307v.004Zm-89.642-29.927c7.69-8.427 19.506-29.35 19.506-34.539 0-1.597.96-3.232 2.134-3.634 1.376-.471 1.307-8.514-.195-22.648-1.281-12.055-2.822-41.89-3.425-66.3-.649-26.271-1.958-44.383-3.209-44.383-1.162 0-5.667 2.415-10.011 5.367-8.839 6.005-21.383 26.097-32.691 52.36-7.211 16.747-7.397 17.941-7.397 47.328 0 24.395.832 32.567 4.364 42.833 5.521 16.047 15.406 31.826 19.941 31.831 1.916.003 6.858-3.694 10.983-8.215Zm-48.439-125.74c0-1.206-.986-1.582-2.191-.838-1.206.745-2.192 2.341-2.192 3.546 0 1.206.986 1.583 2.192.837 1.205-.745 2.191-2.341 2.191-3.546v.001Zm6.18-14.708c.385-2.618 1.618-4.759 2.74-4.759 1.121 0 2.039-1.574 2.039-3.498 0-1.923 1.991-6.292 4.423-9.709 2.433-3.416 3.627-6.704 2.653-7.305-.973-.601-3.876 3.027-6.451 8.065-11.434 22.372-12.045 23.924-9.026 22.929 1.607-.529 3.237-3.105 3.622-5.723Zm207.81 201.11c-3.177-2.498-5.775-6.133-5.775-8.078 0-1.944-1.835-5.571-4.078-8.06-5.391-5.982-10.351-26.991-14.565-61.683-1.891-15.576-3.935-29.963-4.542-31.971-.607-2.008-.077-4.285 1.178-5.061 2.92-1.804 2.999-16.493.089-16.493-1.379 0-2.192-14.474-2.192-39.04 0-45.945 2.014-52.979 17.545-61.269 10.867-5.8 14.771-6.082 19.906-1.435 5.741 5.196 14.422 5.365 18.926.369 7.629-8.465 28.634-23.103 35.229-24.551 6.838-1.502 17.168 2.313 25.105 9.272 6.196 5.433 4.649 14.404-4.49 26.048-22.004 28.037-35.082 58.739-42.795 100.47-4.709 25.477-5.056 31.16-3.273 53.698 3.927 49.645 4.4 46.535-9.163 60.269-13.058 13.221-18.081 14.615-27.106 7.516l.001-.001Zm11.794-25.084 5.184-5.517-3.706-19.329c-5.372-28.025-5.037-73.656.679-92.375 2.392-7.835 4.357-16.465 4.366-19.177.009-2.713 1.003-4.932 2.209-4.932 1.205 0 2.192-2.309 2.192-5.132 0-2.822 4.026-13.261 8.948-23.197 4.921-9.936 8.541-18.472 8.045-18.969-.497-.497-3.216 1.559-6.043 4.568-6.649 7.078-10.342 6.894-21.146-1.051l-8.868-6.521-5.034 5.359c-4.56 4.853-4.891 6.655-3.522 19.123.832 7.571 2.393 38.916 3.47 69.655 2.401 68.545 4.594 103.01 6.556 103.01.818 0 3.82-2.483 6.67-5.518v.003Zm127.09 26.763c-8.625-2.941-12.796-11.483-13.048-26.725-.079-4.822-2.601-14.043-5.603-20.491-6.261-13.45-6.891-21.415-2.112-26.696 2.725-3.011 3.691-14.868 5.204-63.857 2.029-65.711 2.312-67.134 15.92-79.944 11.512-10.837 14.823-10.89 28.896-.464 6.812 5.047 12.476 10.244 12.586 11.549.109 1.304.356 42.593.548 91.753l.348 89.382-10.958 10.508c-9.442 9.052-21.462 18.125-23.485 17.725-.343-.067-4.077-1.301-8.296-2.74Zm15.279-55.375c-2.596-11.447-1.115-69.498 2.401-94.088 2.446-17.115 5.881-36.121 7.526-41.643.718-2.412-.159-6.355-1.952-8.767l-3.257-4.384-3.271 4.384c-1.866 2.5-3.792 11.445-4.482 20.821-3.864 52.436-8.618 98.258-11.024 106.25-2.363 7.854-2.227 10.554.95 18.854 2.04 5.328 4.397 11.594 5.238 13.924 1.504 4.164 1.606 4.162 5.925-.158 3.97-3.969 4.158-5.44 1.946-15.195v.002Zm1078.5 53.725c-9.624-4.365-25.976-16.525-33.696-25.058-2.19-2.42-7.987-12.784-12.883-23.03l-8.902-18.63 1.469-40.434c.808-22.238 2.278-41.471 3.268-42.739.99-1.268 2.452-6.572 3.248-11.787 3.208-21.005 24.45-53.947 47.251-73.275 9.616-8.151 9.866-8.223 23.798-6.795 17.844 1.828 33.04 9.946 44.441 23.743 7.041 8.521 8.591 12.092 8.591 19.793 0 8.014-1.141 10.399-7.747 16.2-4.261 3.741-9.933 6.919-12.603 7.062-5.958.318-4.464.674-19.902-4.741-12.393-4.347-13.011-4.367-17.213-.564-13.953 12.627-23.287 41.618-23.736 73.72-.499 35.667 9.194 51.872 31.028 51.872 10.28 0 30.447-7.548 30.447-11.396 0-.965 1.438-1.754 3.194-1.754s11.454-8.261 21.549-18.356c22.625-22.625 24.715-23.843 35.326-20.586 12.097 3.713 21.036 14.966 20.984 26.415-.033 8.532-1.464 10.774-18.638 29.311-24.173 26.092-43.746 40.468-66.539 48.872-21.827 8.048-38.268 8.721-52.735 2.158v-.001Zm22.887-23.613c9.481-1.701 8.885-2.722-4.013-6.882-9.596-3.095-31.727-23.749-37.082-34.605-4.678-9.485-9.123-37.799-7.56-48.152 1.168-7.739 4.984-24.956 10.138-45.74 2.153-8.685 8.432-23.46 13.935-32.792 4.19-7.107 18.168-18.495 22.68-18.479 2.251.006 7.053 1.974 10.669 4.369 6.856 4.54 18.63 5.954 18.63 2.236 0-3.544-16.819-11.003-24.809-11.003-12.343 0-30.249 16.703-45.919 42.835-13.861 23.115-27.901 60.812-27.901 74.914 0 4.687 2.124 14.877 4.72 22.645 7.885 23.592 21.343 39.786 40.211 48.387 9.537 4.347 13.029 4.648 26.301 2.267Zm858.81 5.661c-7.295-8.156-10.129-18.093-8.744-30.659.699-6.343.543-40.627-.349-76.188-.89-35.562-.855-64.986.077-65.388.935-.402 1.7-14.012 1.7-30.245 0-33.103 1.263-37.352 14.442-48.61 9.008-7.694 20.308-9.366 25.01-3.701 4.404 5.307 13.409 3.897 20.788-3.255 4.853-4.703 11.606-7.785 24.016-10.959 9.496-2.429 19.55-4.416 22.342-4.416 6.925 0 15.845 5.868 25.824 16.986 4.599 5.124 9.15 9.315 10.114 9.315.965 0 2.576-2.332 3.581-5.182 2.197-6.232 15.024-21.119 18.198-21.119 1.242 0 2.259-.985 2.259-2.192 0-1.205 1.972-2.191 4.383-2.191s4.384-.986 4.384-2.192c0-1.309 8.479-2.192 21.056-2.192 18.784 0 22.509.695 34.52 6.443 15.944 7.629 27.596 20.515 32.821 36.296 8.043 24.295 8.623 80.321 1.498 144.66-1.281 11.564-1.121 22.403.469 31.835 1.327 7.865 1.785 16.742 1.02 19.726-2.096 8.161-24.523 30.63-30.574 30.63-7.742 0-14.733-6.096-19.354-16.876-3.868-9.023-4.209-16.073-4.363-90.154-.178-86.457-1.123-95.038-10.609-96.431-13.419-1.972-18.343 13.257-24.331 75.243-2.446 25.315-5.867 52.931-7.603 61.369-1.735 8.439-3.192 20.297-3.236 26.351-.088 12.46-8.583 27.631-24.817 44.333-11.754 12.095-18.687 12.417-28.481 1.322-8.578-9.719-9.396-12.289-14.816-46.558-3.281-20.745-4.295-38.176-4.295-73.863 0-43.25-2.212-67.119-6.663-71.875-2.793-2.985-12.269 9.333-17.391 22.608-3.43 8.888-5.947 26.111-9.93 67.945-2.935 30.821-5.933 60.321-6.663 65.556-3.234 23.224-21.519 48.564-35.042 48.564-4.318 0-8.456-1.815-11.244-4.932h.003v-.004Zm16.761-25.703c6.254-8.782 8.099-22.178 11.981-86.964 3.033-50.634 6.367-75.275 10.183-75.275.821 0 2.141-3.452 2.932-7.671.792-4.22 2.381-7.672 3.532-7.672 1.151 0 2.119-1.233 2.152-2.739.076-3.743 10.315-15.159 19.873-22.168 10.336-7.579 19.252-7.496 26.639.25 14.294 14.987 18.366 36.661 21.517 114.52 2.426 59.938 3.578 72.328 6.725 72.328 1.103 0 2.969-2.712 4.145-6.028 1.176-3.315 3.215-7.885 4.531-10.156 1.813-3.13 1.681-4.573-.548-5.961-2.311-1.438-2.389-2.723-.366-5.99 3.617-5.84 8.671-36.246 13.873-83.475 6.203-56.307 9.802-69.065 23.696-84.004 4.77-5.129 7.357-6.027 17.359-6.027 13.159 0 20.832 3.236 29.413 12.407 12.06 12.886 12.874 18.089 13.12 83.853.125 33.248-.508 70.459-1.406 82.693-.898 12.234-.908 23.416-.022 24.848 1.111 1.795 3.916.369 9.034-4.591l7.424-7.196-.149-37.378c-.262-65.501-3.551-142.12-6.432-149.84-1.609-4.31-6.15-9.433-11.172-12.603-7.041-4.445-11.245-5.341-25.052-5.341-10.309 0-18.949 1.22-22.82 3.222-9.141 4.727-18.425 17.731-25.084 35.134-7.731 20.205-8.705 21.803-13.751 22.563-9.442 1.421-22.662-17.846-22.662-33.026 0-6.326-8.464-16.934-13.511-16.934-10.641 0-29.998 7.779-41.664 16.744-6.84 5.257-13.762 9.557-15.382 9.557-1.62 0-6.574-2.466-11.009-5.479-13.374-9.088-13.871-8.44-15.984 20.821-.74 10.247-3.194 38.849-5.454 63.561-2.259 24.712-4.774 56.704-5.588 71.094-.814 14.389-2.666 29.677-4.117 33.972-3.535 10.47-2.167 15.48 4.228 15.48 3.234 0 6.91-2.443 9.816-6.525v-.004Zm-718.75 12.686-7.562-9.102-1.562-38.529c-.859-21.19-2.597-54.309-3.862-73.596-1.265-19.288-2.911-53.315-3.658-75.616-1.205-35.953-1.84-41.065-5.604-45.116l-4.245-4.569-19.137 4.238c-23.082 5.113-34.711 3.141-46.177-7.828-17.795-17.023-20.574-37.904-6.632-49.829 10.195-8.72 20.953-8.617 35.51.34 8.555 5.263 13.621 6.826 22.16 6.836 7.618.006 10.876-.824 10.446-2.671-.343-1.476.465-3.996 1.796-5.6 1.523-1.835 1.7-4.391.477-6.893-2.521-5.156 1.416-209.75 4.055-210.73 1.082-.401 1.967-2.127 1.967-3.835 0-1.708.986-3.105 2.192-3.105 1.206 0 2.192-1.412 2.192-3.138 0-3.753 11.268-12.204 16.272-12.204 5.719 0 19.806 9.932 27.037 19.061l6.699 8.458-2.029 18.569c-1.115 10.213-1.765 57.01-1.442 103.99l.586 85.426 5.48 1.627c3.013.894 9.415 2.24 14.226 2.99 6.312.985 11.041 3.775 16.986 10.025 4.532 4.764 8.239 10.134 8.239 11.933 0 6.403-7.418 14.43-18.423 19.935-17.54 8.773-21.028 12.933-21.028 25.071 0 12.686 9.54 99.277 15.427 140.03 4.749 32.875 5.546 63.711 1.915 74.127-1.556 4.463-7.547 10.665-17.254 17.861-18.95 14.048-24.658 14.349-35.047 1.843v.001Zm25.069-70.897c-1.857-18.038-4.332-37.235-5.502-42.659-1.17-5.425-3.666-27.062-5.547-48.082-1.881-21.02-3.805-38.841-4.274-39.6-.469-.76-1.041-16.518-1.268-35.018-.432-35.121-.066-36.615 9.805-40.218 1.391-.508-.147-3.638-3.598-7.323-3.832-4.091-6.028-8.853-6.028-13.073 0-3.651-.709-7.348-1.576-8.215-2.56-2.56.388-118.34 4.804-188.74.84-13.384.338-18.53-2.125-21.741-3.124-4.076-3.362-4.083-7.643-.208-4.322 3.911-4.418 6.483-4.418 117.74 0 98.38-.46 114.63-3.393 120.3-4.279 8.275-10.812 10.756-28.32 10.756-11.88 0-15.896-1.132-27.715-7.813-11.48-6.488-14.673-7.425-18.841-5.526-7.432 3.386-6.552 12.185 1.999 19.996l7.018 6.409 25.311-1.319c33.801-1.762 33.729-1.834 38.439 38.471 1.881 16.104 4.373 33.338 5.535 38.297 5.609 23.937 19.454 127.55 19.649 147.05.033 4.011.453 3.924 5.553-1.176l5.509-5.509-3.374-32.797v-.002Zm501.94 73.648c-8.743-3.919-27.289-23.27-36.047-37.611-21.744-35.605-26.43-68.775-17.537-124.13 5.141-31.999 7.291-40.026 16.1-60.104 1.932-4.401 3.512-8.893 3.512-9.982 0-1.089 3.411-5.704 7.58-10.256 5.09-5.557 8.871-7.901 11.507-7.134 2.159.627 8.076 2.213 13.148 3.523 10.793 2.788 23.809 14.189 25.954 22.736 1.074 4.279-.689 11.766-6.167 26.184-8.308 21.869-15.132 49.208-19.383 77.654-3.156 21.119-1.541 28.926 10.469 50.608 11.614 20.966 19.407 28.914 28.351 28.914 4.094 0 7.444-.986 7.444-2.192 0-1.205 1.396-2.191 3.103-2.191 3.354 0 14.873-13.689 17.522-20.822 4.031-10.857 7.867-48.322 7.867-76.827 0-34.447-5.167-66.608-13.072-81.357-2.898-5.408-4.462-12.443-4.462-20.08 0-10.325.829-12.53 6.808-18.114 8.191-7.653 16.14-8.159 28.566-1.82 24.68 12.591 39.146 35.297 39.146 61.445 0 8.266 1.143 21.705 2.54 29.864 2.172 12.688 1.83 20.488-2.364 53.895-6.579 52.408-11.65 66.84-31.515 89.696-6.444 7.414-16.512 15.707-24.481 20.163-21.489 12.017-57.045 15.8-74.589 7.936v.002Zm45.967-10.906c2.443-2.218 6.747-5.222 9.562-6.676 2.816-1.454 4.634-3.129 4.04-3.723-.595-.594-4.082.473-7.751 2.369-9.793 5.064-13.251 4.377-26.976-5.36-13.263-9.409-23.964-23.722-36.838-49.272-7.653-15.19-7.726-15.604-7.381-41.643.3-22.433 2.741-43.01 8.846-74.52.699-3.616 2.027-7.068 2.948-7.671.919-.603 2.391-5.884 3.267-11.735 1.529-10.201 1.412-10.542-2.831-8.272-9.545 5.109-20.914 48.151-24.908 94.302-3.076 35.555-1.596 50.349 7.294 72.871 5.69 14.416 9.827 20.949 19.452 30.712 6.724 6.82 14.614 12.903 17.534 13.517 9.91 2.083 29.123-.706 33.742-4.899Zm49.257-53.347c4.525-9.755 5.475-15.679 6.24-38.904.496-15.068 1.787-28.334 2.869-29.479 3.063-3.242 2.434-39.313-.741-42.488-1.706-1.706-3.013-11.638-3.534-26.85-.769-22.451-1.187-24.378-5.963-27.508-8.078-5.293-9.92-1.918-5.27 9.658 2.291 5.702 6.1 24.01 8.465 40.685 4.031 28.419 4.101 32.331 1.121 62.465-2.849 28.805-6.477 48.969-10.812 60.092-.822 2.11-.644 3.836.396 3.836 1.041 0 4.293-5.178 7.228-11.507h.001Zm-472.77 61.672c-15.613-7.767-38.737-34.661-50.38-58.595-9.148-18.805-10.245-22.731-11.075-39.646-.506-10.325-1.799-19.71-2.873-20.855-2.682-2.86-2.476-20.931.238-20.931 1.205 0 2.191-1.915 2.191-4.254 0-2.34-.985-4.864-2.191-5.609-2.935-1.814-2.811-17.989.151-19.819 1.288-.797 2.087-6.256 1.775-12.133-.313-5.877.114-11.366.945-12.197.831-.832 1.512-4.321 1.512-7.752 0-3.432.98-7.953 2.18-10.046 1.198-2.093 4.228-9.478 6.733-16.41 2.504-6.932 5.962-14.012 7.683-15.734 1.722-1.721 3.13-4.102 3.13-5.291 0-5.845 19.885-19.187 35.663-23.929 14.481-4.353 17.919-4.658 28.221-2.502 24.998 5.232 52.617 24.826 62.509 44.347 10.706 21.126 18.013 55.298 14.048 65.696-3.955 10.375-18.149 25.531-31.568 33.712-7.024 4.281-24.678 12.351-39.233 17.934-14.554 5.583-27.446 11.724-28.648 13.647-4.941 7.904 6.346 27.503 23.259 40.389 12.113 9.227 16.474 9.331 45.336 1.079 23.498-6.718 34.494-6.761 43.288-.167 3.917 2.938 7.123 7.071 7.123 9.185 0 4.883-19.444 27.218-29.851 34.29-12.997 8.832-41.549 17.532-62.203 18.952-16.179 1.114-19.857.671-27.964-3.361h.001Zm53.169-26.056c.746-1.206 4.227-2.192 7.738-2.192 8.467 0 29.152-9.294 36.06-16.201 5.983-5.983 6.425-7.465 3.573-11.965-1.477-2.331-5.554-.867-19.144 6.871-24.65 14.036-37.477 17.836-49.388 14.628-13.437-3.618-25.806-13.294-41.131-32.175-9.325-11.488-13.761-19.017-14.713-24.967-.75-4.685-2.222-8.519-3.274-8.519-1.051 0-1.911-3.151-1.911-7.003 0-7.31 9.104-19.298 14.656-19.298 1.583 0 2.878-.985 2.878-2.192 0-1.205 1.852-2.191 4.115-2.191s5.176-1.278 6.472-2.84c1.833-2.209.164-3.487-7.504-5.751-8.559-2.527-10.594-4.36-15.424-13.892-4.537-8.952-5.352-13.053-4.413-22.194 1.709-16.643 3.914-28.469 5.769-30.939.906-1.205 2.838-5.89 4.294-10.411 1.456-4.52 3.488-8.219 4.517-8.219 1.028 0 2.184-2.118 2.569-4.707.385-2.589 2.619-5.795 4.965-7.123 2.345-1.329 6.229-4.142 8.632-6.252 7.246-6.361 15.492-5.64 31.991 2.798 13.781 7.049 22.022 16.527 30.032 34.539 5.759 12.949 7.826 32.625 4.31 41.019-1.01 2.411-1.002 3.325.022 2.031 1.018-1.293 3.56-2.982 5.649-3.752 2.302-.85 3.289-2.73 2.506-4.772-.738-1.92-.121-3.37 1.435-3.37 2.059 0 2.372-3.896 1.275-15.89-2.476-27.078-10.465-43.138-26.858-53.997-16.971-11.24-35.358-11.593-56.113-1.075-14.876 7.538-21.962 19.617-28.924 49.307-6.552 27.94-7.438 61.859-2.523 96.539 3.36 23.707 12.97 45.723 27.262 62.449 7.665 8.971 8.537 9.373 20.479 9.442 6.86.033 13.083 1.059 13.828 2.264.745 1.205 6.662 2.192 13.15 2.192s12.406-.986 13.151-2.192h-.008Zm-44.59-140.82c5.238-2.713 10.745-6.084 12.24-7.492 1.494-1.409 5.933-3.244 9.862-4.08 7.629-1.621 14.817-6.779 14.817-10.631 0-6.626-12.434-32.909-16.977-35.885-6.751-4.424-13.909-.819-18.819 9.476-6.686 14.02-15.199 53.543-11.534 53.543.489 0 5.174-2.219 10.411-4.931Zm-1434.1-74.064c-10.647-11.192-10.936-18.639-1.56-40.088 3.777-8.64 7.485-16.203 8.24-16.805.755-.604 3.336-4.842 5.735-9.42 6.398-12.207 33.483-42.67 48.822-54.912 7.328-5.849 13.859-12.028 14.513-13.731 1.909-4.974 11.797-7.801 17.335-4.957 11.442 5.879 16.842 13.344 16.842 23.283 0 11.535-12.557 32.485-48.642 81.149-34.902 47.068-44.807 52.803-61.285 35.481Zm21.503-25.13c1.393-3.004 1.798-5.462.9-5.462-.899 0-2.757 2.465-4.13 5.479-1.374 3.014-1.778 5.472-.9 5.462.878-.006 2.737-2.475 4.13-5.479Zm10.1-16.436c5.321-12.283 4.626-13.596-1.732-3.273-5.65 9.173-6.546 12.055-3.747 12.055.921 0 3.386-3.952 5.479-8.782Zm12.572-22.161c0-1.206-.987-1.583-2.192-.838-1.206.745-2.192 2.341-2.192 3.546 0 1.206.986 1.582 2.192.837 1.205-.746 2.192-2.341 2.192-3.546v.001Zm10.958-15.084c2.576-3.616 3.842-6.575 2.814-6.575s-3.616 2.959-5.753 6.575c-2.136 3.616-3.402 6.575-2.813 6.575s3.177-2.959 5.752-6.575Zm9.953-11.105c2.359-3.816-.327-4.625-3.333-1.003-1.729 2.083-1.895 3.34-.442 3.34 1.282 0 2.981-1.051 3.775-2.337ZM359.512 2.473c0-1.206.987-2.192 2.192-2.192 1.206 0 2.192.986 2.192 2.192a2.198 2.198 0 0 1-2.192 2.191 2.198 2.198 0 0 1-2.192-2.191Z" fill-rule="nonzero" fill="#fff"/></g></svg>