<svg xmlns="http://www.w3.org/2000/svg" xml:space="preserve" style="fill-rule:evenodd;clip-rule:evenodd;stroke-linejoin:round;stroke-miterlimit:2" viewBox="0 0 1417 1022"><path d="m485.827 533.554-.3 4 1.8 3.7 1.8 3.5 9.3 9.6h7.1l12.4-1.7h30.2l22 2 5.1-2 5.2-7.5 2.3-4.8-1.1-4.2-3.1-3.7-2.5-3.4-4.5-2.5-13.3-1.7-39-.3-1.3-2-1.3-1.8h-5.2l-2.4 1.6-2.4 1.7-5.4 2-9.3 1.1-4 2-1 2.4-1.1 2Zm15.8 3.2 4-1.3 7.6-3.5 9.3 2.8 26.5 3.1 19.8 1.1 3.7 3.4v1.3l-4 2.3-4.5-1.7-7.6-1.1-1-.8-.8-.6-11.7-1.7-28.4-1-9.3 2-3.4-4v-.3h-.2ZM661.527 570.654l-5.4-5.6v-1.4l-4.7-5.4-4.8-6.2-11-10.7-4.8-4h-1.7v-1.8h-2.7v-1.8h-2.7v-1.8h-2.4l-9.6-5.4h-4.7l-6.8 5.4-2.3 4.8-.1 4.7 5.9 8.8 11.4 9.5 18.6 16.1 14.1 9.6h6.5l4.5-4.5 3.1-6.2-.6-2 .2-2.1Zm-46.1-26.8-2.8-2.8h-1.7v-1.8l4.5 2.8v1.8Zm7 5.2v-1.8h-1.8l-2.8-2.8-1.7 1.1v-2.8l4.8 3.1 4.2 3.1h-2.7v.1Zm6.8 4-1.4-.6v-1.6h.7l2.3 2.8-1.6-.6Zm9.2 7.6-5.4-4.8v-.7l5.4 3.7v1.8Zm3.5 3.7-2.5-2.5v-1.3l2.5 2.3v1.5ZM489.327 365.354l-2 4.2v9.3l2.5 8.2 4 7.6 11.3 11.6-2 2.5h-2.4v1.8h-3.1l-5.9 3.7-7.1 6.5-1.4 3.7v5.1l8.2 8.8 5.9 2.8h5.9l14.1-8.2 13.3-6.8 5.4-2 9.7-1.8 48.8.6 5.6-2.4 4.2-6.5 2.3-5.1v-8.8h-1.8v-2.3l-3.7-2.5v-4l4-6.8v-10.3l-1.7-1.1-1.6-3.2-1.3-2.7-12.4-11.9h-2.4v-1.4l-6.2-2.5v-1.4h-3.5v-1.4l-8.5-2.4-7.1-3.1-1.4.8v-1.6l-7.6-2.3-21.2.8-9.9 1.7-5.6 1.7-11.9 5.6-3.7 2.8-8 8-1.8 4.7Zm103.3 40.3.6 3.1h-24.1v-1.8h-6.2v1.8h-22.2l-1.1 1.7h-7.1v1.8h-5.2l-.6 1.4-12.4 6.9-.8 1-4.5 2.5-7.3 4-4.5-.8-.6-2 .7-2.8 11.6-6.1 7.6-7.1 3-5.8-1.1-1.7h.8l8.8 5.6 7.6-.8 24.8-2.3 16 .7 16.2.7Zm-6.6-13.9h-33.5l-1.7 1.7-14.1.8-7.6 1.1v-2h-3.5v-1.4l-5.6-2.5-2.4-2.4-1.7 1.3v-1.7l-6.2-6.5v-3.4l6.5-5.4 12.4-4.9h24.8l13.6 6.5 13.6 9.3 5.2 8.2v1.3h.2Zm-14.8-31 12.1 7.2v1.7l-2.7-1v-1.6h-2.7v-1.8h-3.5v-1.8h-2.8l-2.5-2.5h2.1v-.2Zm-7.4-2.7h1.4l3.4 2.8-3.7-1.7-2.5-.8 1.4-.3Zm-71.1 14.7 2.8-5.4 4-4.2 7.9-5.1 14.1-4.5 29.4-.3 9.9 3.4 1.7 1.4-4.4-1h-25.7l-9.3 2.5-9 4.1v1.4h-2.9l-2.3 2.3-3.4 2.8-2.5 3.4-1.3 2.1-1.1 2v6.4l.8 1.7 1 1.7h-1.1l-5.1-5.6.8-1.7h-1.6l-3.1-6.2.4-1.2ZM590.527 509.154l2.7-2.7 3.7-8.2-1.1-7.3-1.1-.8-4.8-7.5v-1.1l-5.4-5.1v-5.1l3.5-5.8v-3.4l-1.7-1.1v-3.4h-1.8v-2.3l-3.7-3.1h-2.5l-1.1-1.7h-34.6v1.8h-6.1l-1.1-2-5.6 1.1-12.4 1.7-9.7 1.7-12.1 3.7-3.2 3.8h-2.7l-3.7 4.8v5.6l8.8 10.7 6.2 1.1 2.8-1.1 24-1.7 9.3 2 15.1 3.7 14.4 6.8 10.4 7.1 9.2 8.2h4.5v-.4h-.2Zm-12.6-25.2v1l-5.4-3.1v-1.4h-3.5v-1.8h-3.5v-1.4l-4.8-2.3h-3.2v-1.8h-3.7l-9.3-2.8-3.1-1.7h-20.9l-5.4.6-15.2 3.4-4.8-4.8v-1.9l3.1-.1 26.5-2 22.3-.3 27.1-2.5 2.8 2.3 1.7 2.8-5.1 7.9v3.8l4.4 6.1ZM596.227 617.854l-3.1-6.4-13.4-12.7h-1.3l-4.8-4.5h-2.4l-2.5-3.7h-2.3l-6.2-3.7h-2.4l-.6-2-2.5-.6-3.5-1.6-3.5-1.7-2.5-.6-2-2h-4.9l-.6-.8-.6-.1h-4.4v-1.6l-3.4-.6-3.4-.7-23.2-.8-7.1 2.3-6.2 3.7-2.3 2.3-3.1 2.3-4.8 6.5-3.4 8.5.8 11.6 3.4 9 6.4 9.6 7.3 7.6v2.5h-2l-8 5.4-6.1 7.3-1.1 6.8 2.3 7.3 7.1 7.9 5.6-.1 5.4-7.3 7.1-3.7 19.5-1.1 16 4.4 10.7 2.3h13.3l13 2.3 4.5-.8 5.4-6.5.6-.8.7-.8 2.3-6.2v-2l7.1-8.3 4.5-10.2v-4.7l-2.3-6.5-3.1-6.5Zm-58.6-26.7 4.4 1.3-6.8.3v-.8l1.1-.4 1.3-.4Zm-13.9 41.5v-1.8h-2l-4-3.1-4-2.5-7.1-6.8h1.4l-2-1.4-5.6-8.2v-4.4l2.3-2 9.6-2 13.6 2.3 14.5 4.9 18.4 9.6 14.4 9.3 4.8 6.8v3.1l-2.8 4.2-7.1 4.8-5.9-3.7-7.1-1.1-8.8-2.8-5.5-1.6h-6.6l-7.1-2.3v-1.4h-3.4v.1Zm-30.5-18.9-.4.4-1.1-3.2-1.1-3.1h-1.4v-11.3l6.8-7.1 7.9-2 9-1.1 7.1 1.8 10.7 1.1 5.1 1.7-10.7-.7-4.9-1.4-12.7 2.3-1.7 1.4h-2.4l-2.3 1.7-7.6 6.5-2 6.8 1 3 1 2.8-.3.4Zm97.3 23.5-1 3.1-10.6 11.3-1.4 5.4-8.8-.3-22-1.4-2.5-2.5h-10.4l-1.1-2-15.8.3-9.3 2.3-8.8 4.5-6.8 6.5-2.5-.8v-2.7h-1.4l-.3-5.9 4.7-3.7 10.2-3.7 6.2-3.1 2.8-5.6h1.4l6.6 5.4 5.1 1.8 5.1 1.7 12.1 1.1 26.5-2.8 2.5 3.7h4.1l7.9-5.9 5.1-5.9 2.8-5.9-2.3-7.1h-1.6v-3.5h-1.8v-2.8l-8.2-7.9h-1.3l-4-3.4-1.1.8-2.5-3.4h-3l-13.6-6.8-.6-1.4h-5.2v-1.8h-3.5v-1.9l7.6 2.3 7.6 2.8 16.2 8.3 12.1 11.9 4.5 9 1.1 7.1-.8 2.9Z" style="fill:#fff;fill-rule:nonzero"/><path d="M470.627 248.654c3-21.3 6.4-42.5 9.3-63.8l4.7-34.2 4.2-19.2c1.1-9.3 1.6-18.6 2.4-28 .8-9.3 1.3-18.6 2.4-28 .4-4 1.3-7.9 2.1-11.7.8-4 2.3-7.6 2.1-11.7-.1-2.5-.6-5.1-1.3-7.5-.7-2.5-1.8-5.1-3-7.5-2.1-4.4-7.6-7.9-10.9-11.2-3.7-3.7-7.1-7.6-10.9-11.2-6.4-5.8-6.8-5.4-12.8-11.3-1-1-2.5-2.7-4.2-2.4-1.7.1-3.4 2.3-4.4 3.4-6.4 7.3-5.9 7.6-13.1 14.1-3.8 3.5-10.9 7.1-14.3 11.4-1.1 1.4.3 6.1-.1 7.6-.4 1.6-4.5 0-4.9 1.7-1.8 6.8-3 13.7-4.7 20.5-1.3 5.6-3.7 14.7-4.7 20.5-1.3 8.5-.6 17.1-2.1 25.7-.8 5.2-1.7 4.8-3.8 9.6-.8 2-1 6.8-1.3 8.6-1.3 9.3-1.6 9.7-3.5 19.9-1.3 6.5-2.4 15.7-5.6 21.9-.8 1.6-2.5 2.7-3.2 4.2-.8 2-1 4.2-1.3 6.4-1.3 7.5-1.8 15.5-3.8 22.9-1.4 5.6-5.6 10.4-6.8 16.2-1.1 5.1.4 11.2 0 16.1-.1 2.4-3.2 5.9-4 7.9-2 5.4-4 10.7-5.1 16.2-.6 3.1 1 6.2.4 9.2-.4 2.3-4 3.1-4.8 5.5-1 2.8 1.4 6.6-.3 9.2-1.6 2.3-3.1.6-4.2 3.1-1.1 2.7 1 5.2-.3 7.9-.7 1.6-3.2 0-3.7 2.3-.4 2-.1 4.1-.8 6.1-2.4 6.9-6.9 12.8-9.5 19.6l-6.4 21c-1.1 4.8 1.3 10 0 14.8-.3 1-2.8 0-3.4.4-2.1 1.4-1 6.9-1.1 8.5-.1.8-1.8 1.1-2.3 1.4-.8.7-1.8 1.4-2.1 2.4-.8 2.4.1 5.2.1 7.6 0 .8.3 1.8-.3 2.4-.8 1-3.2-.6-4 .6-1.4 2.5-.4 5.6-.4 8.3 0 .8.1 1.8-.3 2.5-.3.4-2.8.3-3.2.4-3 2.1.3 6.4-1.4 8.6-.3.4-2.3.1-2.7.4-.6.3-1 .7-1.3 1.3-1.4 2.1.1 2.5-.7 4.8-4 10.7-9.9 20.6-14.1 31.2l-1.8 9c-.3.7-1.8.6-2.3.7-.8.6-1.7 1.1-2 2-.4 1.1-.1 8.9-.3 9.5-.1.8-1.8 1-2.3 1.4-.8.8-1.6 1.7-2 2.8-1 3.1 0 4.5 0 7.3 0 .8.1 1.7-.3 2.4-.3.4-3.2.8-3.7 1.1-2.3 1.7.1 5.8-.8 7.9-.3.4-2.7-.1-3.5 1-1.1 1.6-.1 2-1.1 3.7-1.8 3.4-4.2 6.4-6.2 9.6-2 3.2-3.8 6.6-6.2 9.6-2.1 2.7-4.9 4.9-7.3 7.5-1.4 1.6-5.4 6.2-7.3 7.5-1.3.8-3.7.6-4.9 0-5.2-2.3-10.2-4.8-15.2-7.3-5.1-2.4-10.3-4.7-15.2-7.3-1-.6-1.3-2.3-2.3-2.8-5.1-2.8-11.9-4.4-16.8-7.8-4.2-3-8-6.4-12.1-9.5-12.3-9.5-21.2-18.1-32.8-29.8-6.9-7.1-14-14-20.6-21.3-4.5-4.9-8-11.9-11.7-17.4-4.1-6.2-8.2-10.9-11.7-17.4-10.9-19.9-18.6-41.4-29.5-61.3-1.4-2.7-5.4-4.4-7.5-6.1-9.5-7.2-18.5-15.4-31.2-15.4-4.8 0-5.6-.1-9.5 1.6-3 1.4-5.8 2.7-8.6 4.4-.8.6-.7 1.4-.7 2.1 0 .4.6 1.3.1 1.4-2.4.6-4.5-2.1-6.8 0-.8.8-.4 1.8-.3 2.8.1.6.8 1.6.3 1.8-1.1.6-2.5-.1-4-.1-1.6 0-3.2-.1-4.8.1-1.4.3-1.6 2.4-1.8 3.4-.1.8.1 2.7-.6 2.3-1.4-.7-3.2-3.1-4.4-2-.6.6-.8 1.6-1 2.4-.1 5.8.4 11.6.4 17.4 0 5.8 2.3 11 3 17.4.3 2 2.7 6.9 3.1 7.2 2 1 3.4 3 5.1 4.4 1.3 1 4.5 2.4 5.1 4.4 1.7 7.1 2.1 12.8 3.1 20 1 6.8 2.3 13.4 3.1 20l4.8 39v28.5c.1 3 3.8 5.1 4.2 8 1.8 12.1 1.6 24.3 5.5 36.1.3 1.1 1.4.6 2 1.3.7.8 1.8 4 1.8 5.1.1 21-.1 42.1-.3 63.2-.1 22.3-.3 44.6-.4 67.1 0 4.4.1 8.8.1 13.1 0 3.8-1.8 11.4 1.3 15 1 1 5.1 3.7 5.4 4 2.1 1.7 4.1 4.2 6.5 5.6 1.7 1 3.7 1 5.5 1.4 1.6.4 3.8 1.7 5.5 1.4 1.8-.3 4.4-2.4 5.8-3.2 1.8-1 4.2-1.7 5.8-3.2 2.3-2.3 5.2-7.1 7.2-9.5 2.3-2.8 5.8-6.1 7.2-9.5 1.4-3.7 1.8-10.7 2.4-14.4.7-4.7 2.1-9.7 2.4-14.4 1.1-15.7 1.8-31.3 2.7-46.9 1.3-20.2 3.4-40.2 2.3-60.4-.7-13.6-1.4-27.1-2.5-40.7-.4-4.8-3-10-2.7-14.8 0-.7 1.3-.4 1.4-.4 1.4.3 4.5-.3 5.6.4 1.8 1 2.3 4.8 3.7 6.1 6.9 6.4 14.4 12 21.6 18.1 5.5 4.7 15.8 13.7 21.6 18.1 4.9 3.7 11.9 7.3 17.1 10.6 5.8 3.5 11.2 7.5 17.1 10.6 4 2.1 8.3 3.7 12.6 5.5 4.3 1.8 8.2 4 12.6 5.5 4.1 1.4 8.3 2 12.6 3.1 3.8 1 8.6 2.7 12.6 3.1 5.2.6 13.1 0 18.4 0 4.2 0 14 .7 18.4 0 3.5-.6 7.2-3.4 10.2-4.9 3-1.6 7.5-3 10.2-4.9 5.8-4.2 11.3-8.9 17.1-13.1 5.6-4.2 12.6-7.6 17.1-13.1 5.1-6.2 7.8-14.5 11.3-21.6 3.5-6.9 8.3-14.4 11.3-21.6 5.8-13.6 11.2-27.2 16.7-40.9 3.2-8.2 6.2-16.4 9.5-24.6 1.4-3.7 2.7-7.2 4.2-10.7.8-2 1.8-3.8 3-5.6.1-.1.6-.3.7 0 1.4 2.4 0 5.6-.1 8.5-.6 5.5-1.3 11.2-1.7 16.7-1.8 26.8-1.4 46.4-1.7 75.1-.1 16.7-.7 33.5-.4 50.1.6 37.4 4.4 74.5 8 111.7l2.5 28.5c.1 1 3.8-1 3.8 0 2.7 26.1 2.5 52.5 5.1 78.6.3 3.1 3.4 6.2 4.1 9.2 1.4 5.9 1.6 12.1 2.5 18.2 1.3 7.6 3.5 15.1 4.2 22.7.8 9.5-.3 9.3-.1 18.9 0 4.7-.4 5.2 2.3 8.2.8 1 1.8 1.7 2.8 2.5.7.6 1.3 1.1 2 1.6.3.1-.3-.6-.4-.7l3.1 3s2.8 3 4.2 4.4c3.5 3.4 3.7 4.8 7.6 4.8 1 0 2-.3 2.8-.3 1.8 0 3.8.7 5.5 0 1.6-.6 3.7-3 4.9-4 1.6-1.4 3.2-2.7 4.9-4 2.7-2.3 5.2-4.5 7.9-6.6 1.7-1.4 6.4-4.8 7.9-6.6 1.3-1.6 1.6-4 2.3-5.8.6-1.6 2.3-4.1 2.3-5.8l-.6-38.4-4.7-32.2c-3.1-24.3-5.4-48.6-7.6-72.8-4.1-43.9-4-43.8-6.6-87.7-1.1-17.1-2.5-34.2-3.2-51.2-.4-12.6.1-25.3-.3-37.8 0-.7-2.1-2.7-2.1-3.5.3-12.4 1.4-25 2-37.4 1.8-34.6 4.7-69 9.2-103.5 1.7-13 4.9-25.7 6.8-38.7 1.3-9-1-18.4 0-27.4-.1-.9 8.9-67 8.9-67Zm-221.9 299c-.8 1-2.5.4-3.8.4-2.5 0-5.1-.3-7.5-.1-3.8.1-7.5.7-11.3.7-2.7 0-7.1-3.5-9.3-4.4-3.1-1-6.2-1.6-9.3-2.4-18.9-5.6-36.4-16.7-52.1-28.5l-2.3-2.5c-5.9-4.7-12.4-8.6-18.2-13.6-11-9.3-21-19.9-31.9-29.2-3.5-3.1-7.5-5.8-11-8.8-5.8-4.8-9.6-10.2-17.9-9.5-3.7.3-5.4-.3-7.5 2.1-.6.6-.7 1.4-1.3 2-.7.8-2.7 2-2.8 3.4-.1 2.1 1.4 9 1.7 10.7.6 3.5 1.1 7.2 1.7 10.7l3 22.7c.4 1.8 3.4 3.5 3.4 5.5.1 25.8 0 51.5 0 77.4 0 25.8.3 51.5 0 77.4 0 1.7-1.6 4-2.1 5.4-1.4 3.2-2.5 6.5-3.8 9.9-.6 1.6-1.3 3-1.7 4.5-.1.4.3 1.6.3 1.1l.1.6s.8 1.4.4 1.7c-1.7 1-8.2 3.8-9.3 0-.3-1 2.4-3.4 2.5-4.1 1.7-7.1 2.8-14.1 4.4-21.3 1.1-5.5 3.7-15.7 4.4-21.3.7-5.2.4-10.7.6-16 .1-3.5 1-12.1.6-16-.4-5.6-4.9-10.3-5.4-16-2-25.7 0-51.7-2-77.5-.4-5.5-4.1-10.7-5.4-16-.8-3.1-.6-9.3-.7-12.6-.1-4.2-.4-8.3-.7-12.6-.8-12.1-1.7-24.3-2.5-36.4-.4-6.2-1.7-29.2-2.5-36.4-1-8-5.9-15.1-6.6-23.2-.4-5.5-.6-24.4 0-30.4.1-1.3 2.7-.3 2.8-.3 4.9 0 4.8-.6 9.7-1.1 1.7-.1 3.2 2.7 4 3.4 1.3 1.1 2.8 2 4 3.4 1 1.1-.4 5.2 0 6.4 2 5.2 4.7 10.2 7.1 15.2 3.5 7.5 7.3 18.1 12 25.4.8 1.3 3-1.3 4.1.6 1.1 2.1-1.7 4-.3 6.4l17.1 26.1c1.8 2.7 4.8 4.4 6.9 6.8l12.6 16.9c6.4 6.9 13.4 13.4 20 20s13.3 13.4 20 20c9.2 8.8 19.6 15.1 30.1 22 5.4 3.5 11.9 8.2 17.4 11.3 9.9 5.6 20.6 10 30.9 14.8l5.1 2.4c.6 1.2 3 1.9 2.3 2.9Zm50.3-25.1c-.3.3-.6.7-.8 1-.1.1-.3.4-.4.4-.3 0-.1-.6-.1-.8v-1.2c.1-2.3.1-4.7.4-6.9 0-.1.1.1.3.3.1.3.3.6.4 1 .1.3.3 1 .1.7l.4 1s.4 1 .7 1.4c.1.4.6 1.1.6 1.6-.4.8-1.3 1.2-1.6 1.5Zm7.5-15c-.1.4-.3.7-.4 1.1-.1.3-.3.6-.4.8v.1c0-.1 0-.1.1-.3l-.4 1.1c-.1.6-.3 1-.4 1.6-.3 1-.8 3-2.4 2.3-.7-.3-.6-1.8-.6-2.4v-1.3c0-.3.1-.7.1-1 .3-.8 1.6-1 2.3-1.4.4-.3.8-.6 1.3-1 .1-.1.4-.3.6-.4.1 0 .3-.1.3-.1.1.5 0 .8-.1.9Zm138.9 300.3c.6 2.4 2.3 7.8 2.4 10.3.4 7.1.3 14.1.4 21 0 2.1.1 4.2-.1 6.4-.4 2-2.7 4.1-3.8 5.6-1.4 1.8-2.4 3.8-3.8 5.6-.4.6-2.1 1.6-1.6 1.1l-.8.6c-.7.7-1.4 1.4-2.4 1.7-.3.1-5.2.6-5.8 0-.7-.6-1.8-5.4-1.8-5.6-2.3-47.3-1.1-47.3-4.5-94.6-1.7-24-3.5-48-7.3-71.7-1.1-7.1-4.8-15.4-4.9-22.7-.7-32.9-.7-65.8-1.1-98.7-.4-32.9-1-65.8-1.1-98.7 0-.6.6-.8.8-1.3.4-.4 1-.6 1.4-1 .7-.7.8-2 1.8-2.4 1-.6 1.1 2 1.4 3 .6 2.5 1.1 5.1 1.7 7.6 2.1 9.7-4.7 19.3-4.8 29.1-.1 12.3 3.8 25.1 4.8 37.1 1.1 16 1.7 31.9 2.5 47.9s1.3 31.9 2.5 47.9c.7 8.5 3.2 16.7 4.2 25 3.4 28.1 4.5 56.3 8.9 84.3 2 13 5.2 25.7 7.1 38.7 1.2 11.9.9 11.9 3.9 23.8Zm13.5-746-3.8 50.1-3.1 20.5-4.7 20.5c-1.3 9.7-.8 19.8-2 29.6-.4 3.4-3.8 5.8-4.1 9.2-2 18.2-2.5 36.4-4.5 54.6-.1 2-.4 3.8-.8 5.8-.1.7-2.7-2-3.4 0-2.1 5.6-1.3 14.5-1.6 19.9-.3 6.6-.8 13.3-1.3 19.9-1.8 27.7-2.8 55.6-6.5 83.2-.7 4.9-1.4 9.9-2 14.8-.7 6.4-2.5 25.3-2 18.9l-1 9.5s-1.7 19.1-2.8 28.5c-.1.8-1.3 1.4-1.7 1.8-.4.4-.7 1-1 1.6-.1.1-.7.7-.7.4 0-7.3 1-14.7 1.4-22 .6-9.2 1.1-18.2 1.7-27.4.6-9.2 1.3-18.2 1.6-27.4.1-4.1-.3-8-.3-12.1 0-2.8.3-9.3-.4-12.1-.6-2.4-2.4-4.8-3.5-6.9-.7-1.4-2.3-5.6-3.5-6.9-1.4-1.6-4.9-1-6.8-1.6-.7-.1-1.6-.1-1.8-.7-.3-.4 1-3.8 0-4-1.7-.4-3.5-.7-5.2-.8-1.1-.1-2.3 0-3.2.1-5.5.7-6.5 6.4-8.9 10.4-2 3.2-4.4 6.2-6.2 9.7-1.3 2.5-2 5.4-2.8 7.9-.6 1.7-1 3.5-1.6 5.2-.3 1-.6 3.5-1.3 2.7-1.1-1.3-.6-3.2-.6-4.9-.1-8.9 3.4-15.8 6.4-24 2.1-5.5 3.7-11.3 5.9-16.7l17.6-36.4c1.7-3.2 5.6-7.6 6.6-11.4 1.1-4.4-.7-9.5 0-14 .7-3.8 2.1-7.5 3.2-11.3 2.8-10 3.1-9.9 4.8-20.2.4-2.3.7-6.8 1.6-8.9 2.4-6.5 5.2-12.8 7.9-19.1 2.4-5.6 6.4-13.1 7.9-19.1 1.6-5.9 1.7-13.7 2.4-19.8.7-6.6 1.3-13.3 2.4-19.8 2-11.7 4.4-18.6 6.8-29.4.7-3.1 1.6-6.2 2-9.3.4-4.2-.7-10 0-14.3.7-4.2 4-12.4 5.4-16.4 1.8-5.4 3.4-11 5.4-16.4.4-1.1 2.1-2 3-2.8.6-.6 1.1-1.4 1.7-2 .3-.3 1.3-1.3 1.1-.8-.8 5.2-3.2 9.5-3.7 14.1ZM1305.13 896.254l-2-2v-3.2l-3.7-7.3v-2.3h-1.8v-2.8l-6.2-8.5v-2h-1.8v-2.4l-3.7-3.7v-1l-7.6-8.2-5.6-5.5-5.1-4h-2.3v-1.8h-2.7v-1.4l-8.8-4.2v-1.1l-7.9-3.4v-1.4h-3.5v-1.4l-4.8-.3-.6-1.7h-4.1l-.6-1.6-6.2-.6-2-1.4-18.4.8-6.8 1.1v1.6h-2.1l-9 9.6-4.2 11.9 1.1 9 5.9 12.6 5.5 8-10.2 2.3h-5.4l-6.5 2.3-1.1 1.1h-3.2v1.8h-2l-2.3 2.3-2.8 5.4v4.5l3.4 7.3 5.6 6.5 4.2 1.1 5.1-2.4 5.2-2.4h52.4l15.2 4.8 10.7 2.3 5.9.6 5.8.6 2.5 2.3 4.2 8.8 4.5.8 5.6-1-.8-2.3 10-11.3 2.8-5.4v-5.2l.2-6.2Zm-11.8 12.7h-2.3l-3-3.2v-3l-7.3-2-7.3.3-5.6-1.4.8-1.7h-12.6v-1.8h-5.4v-1.8h-6.1l-.8-1.4-16.1-2.3-22.6 2.1-10.7.8-9 1.4-6.2 4-2.3-1.1-2.1-1.1-.6-4.8 4.5-2.8 12-1.7 6.4-.6 6.2-.6 2.8-2 3.4-6.5 9.3 7.1 9 2.8 12.6-.1 8.9-1.7 10.2-1.1 5.4 3.7 11.3 5.4h6.6l3.1-3.4 2.3-2.8v-6.4h-1.8v-3.5h-1.8v-2.7h-1.8v-3l-3.8-3.2h1.4l-5.6-5.1v-1.8l-3.7-1.1-4.2-4.2h-2.3l-3.4-2.5-1.4.8v-1.8h-3.5v-1.6l-11.2-4.7h-2.3v-1.8h-4.4l-1.1-1.7h-6.1v-1.8h-20.5v1.8h-2.1l-7.3 7.9-1.1 6.8 1.7 7.1v1.7l-3.1-6.2-.8-.8-2.3-6.2v-9.3l2.8-5.1 5.6-3.1 13.6-.8 13.8 3.1 9 3.4 8.9 3.4 24.3 11.9 9.6 9.3 1.3 4h1.4l2.8 6.8 4 13.3 2.3 9.9v5.9l-1.7 2.6Zm-72.9-37.2v-2h-1.8l-4-4-2.5-5.4-1.4-1.1-.8-7.1 4-2 7.3 1.1 11.9 4.2 12.1 5.6 18.1 11 9.3 9.3h-16.1l-3.4-1.4-3.2-1.4-19.8-3.7-1.7-.6-4-1.3v-1.6h-4v.4ZM1250.93 278.454l-3.1 7.9 1.1 6.5 5.9 6.2h6.1l4.5-3.1 5.8-6.2 5.4-11.3.3-13.6-2.3-.8.8-1.4-4.5-4.5v-1.2l-7.1-6.5-5.9-4.8-6.8-4.4h-1.7v-1.4l-7.1-2.3h-4.4l-.6-.8-.4-.8-10.2-1.1-24.3-1.1-14.7 7.3-5.9 5.6-5.9 8.8-2.3 4.5-2.5 7.9.8 11.3 5.4 16.5 10.4 15.8 16.7 17.2 6.2-.1 2.7-2.1 4.8-5.9 1.8-6.5-2.8-5.9h-1.6v-2.8l-1.7 1.1v-1.8l-8-8.5v-1.8l-3.7-2.5v-3.1h-1.4l-2.3-5.6-2-4v-10.4l4.8-6.2 8.5-4.2h16.9l12.4 4 7.1 4 5.1 5.4-.4 3 .1 3.7Zm-.8-21.2-4.2-2.3-8.5-2.3v-1.6h-5.2l-10.4-2.8h-4.5l-9.9 2-4.8 1.1v1.6h-2.3l-7.2 6.6-5.6 8.2-2.3 8.2h-1.4v-3.4l-.8-7.8 2.7-7.3 2.3-4.2 4.4-5.2 7.1-5.6 11.3-4.5h8.2l7.3 3.7h1.7l11.6 5.4 12 8.2 8.5 8.2v2.3h1.4l3.1 5.2v7.8l-3.4 7.6h-1.8v-5.4l3.7-7.1v-4.7l-5.5-5.2h2.1l-2.7-2.7h-2.8v-1.6l-4.1-2.4ZM1415.53 346.354l-2.3-5.4-3.4-1.1v-1.7h-2.7v-1.7l-47.6-1-20.2-.4-20.3-.3-3.7 2-1.3-2.1-1.1.3h-1.8v-10.4l5.6-10.4v-9.9l-3.8-4.1v-1.1l-4.5-2h-4.4l-6.8 3.4-7.1 8.5-2.1 8 2.8 15.2.8 4.5-4.2 4.5-33.6 1.1-20.5 1.1-6.8 1.4-29.6.3-7.1 2.1-6.8 6.8v5.9l9.3 14.1 6.2 3.1h11.7l23.7-3.5 2.5-.8 7.5-.8 7.6-.8 26.7-3.5 11.2-.8 4.2 4 4.2 10.4 4.7 5.1h4l6.8-6.8 2-7.1v-5.5l1.7-2.5 74.4-.1 13.6 1.4 7.6-7.8 4-7.6v-3.4h-1.3v-.6h.2Zm-10.1 7.9-2 1.7-5.6-.8-52.5-2.8-28.8-.6v1.1l-5.6.6-5.9 5.6-1.7-2.7v-2.3l-4.7-1.7-1.4.8-21.5.3-8.8 1.4-29.4 3.1-3.7 1.4-11.6 1.1-12.4 1.6-6.5 1.1-4.5-4.5v-1h1.8l25.1-2.8 30.2-5.4 11.6-2.8 12.4-1.7 11.3-1.4 4.1-5.2-1-24.1 3.7-5.9 4.2-2 2.8 1.1 1.1 4.5-6.5 13.6v13.8l2 5.6 5.4 2.8 93.6-.1h3.1l2.8 4.5-1.1 2.1ZM1162.63 187.254l.4 3.1 3.4 10.7 6.8 10.7 6.8 6.5 10.4 6.2 9.6 3.7 18.5 2.5 20.9-1.1 4.8-2-2.1-2.1-6.2-1.1-6.2-2-.8-1.1-7.9-.8-7.1-2-5.4-1.1-5.4-2.3-6.2-2.8 4.5 1.1 8.8 2.8 19.1-.1 1.1 1.7h10.6l8.5-4 9-8.9 3.1-6.6h1.6v.6l-2 10.4-4.2 9.3-9.9 9h-2l2.5 1.7h4l6.6-3.4 6.2-6.8 4.8-6.5v-2.8h1.6l1.1-4.8 1.8-8 1.4-12.4 2-7.9-1.1-5.6h-1.7v-2.7h-3.1l-2.5-3.7h-2.3v-1.8h-2.4l-5.1-2.5-1.4.8v-1.8h-4.4l-5.1-2-16-1.7-16-1.8h-6.2l-14.3 1.8-7.1 1.7-5.4 1.7-7.1 4.2-4 3.7-4.5 4.2-4.7 7.9-1.1 5.6 1 2.6Zm34 25-.6.6-2.3-2.5h1.7l1.2 1.9Zm54-17.4-3.4 7.3-5.1 3.7-5.4 1.4h-13.3l-7.6-1.1v-1.4l-7.1-.8-5.9-3.1-1.7-.4-1.7-.3-1-1.4-4.8-2.5v-1.3l-1.8-2-1.8-2.1v-3.1l5.4-4.5 7.3-2.3 18.6.3 24.4 6.2 4.5 2.8.4 4.6Zm-72.7-20.2 8.2-5.1 10.7-3.4 16.7-4 16.9 2 14.7 3.7 14.7 5.6 4.8 4.8v3.8l-1.7-1.1v-2.7l-2.3-2.3-3-.3-3.1-.3-.8-1.4-21.2-4-16.8-.8-9.9 2.3-9.9 2.8-1.7 1.6h-3.2v1.8h-2.5l-7.3 6.8-2.5 4.8v3.8l-2.3-2.3-1.1-5.1-.8-3.7 3.4-7.3ZM1166.83 562.054l4 8.2 9.9 10.7 3.4 1.1 3.7-1.1 5.4-7.6v-7.2l-1.4-5.1-1.4-5.2-.8-4.8-1.7-.8v-4.4h-1.8v-5.1l-1.1-1.1-2-6.2 2.5-3.7h6.6l15 3.7 18.9 7.6 9.9 4.5 5.6 4.5 5.4 9.6 5.4 3.7h4.7l3.7-2 4 1.1 9.5 11.6 4.2 2.8 4.4 2.8 7.6.8 5.4-4.5 3.1-7.6 1.4-3.7.8-9.3 1.1-1.7.3-33.9-2.1-2.1v-4.1h-1.8v-1.6l-3.1-6.8-.3-.8-1.4-4h-1.1l-2.5-5.6-3.4-3.1-3.4-1.1v-1.6h-4.4v1.8h-2.5l-6.2 6.2-1.1 5.8 5.6 11.3 4.2 11.3v16h-1.4l-4-3.4v-1.8l-5.4-2.3v-1.4h-2.8l1.1-1.8h-2l-4.5-4.5h-1.7v-2.7h-1.6l-.8-6.8-2-13.3-2.8-9.3-4.5-4.8-6.8-2-1 1.6h-2.7l-2.8 2.3-4.8 4.8-1.1 6.5 1.1 6.9h-3.7l-1.1-1.7h-3.8l-6.4-2.3-.8-1.1-7.1-1.1-9.9-2-14.8-.8-2 2h-4.1v1.8h-3.4l-.6 1.4-5.9 4.2-5.4 8.2 1 24.8 2.8 11.6 3.5 7.7Zm107.8-8.3 5.9.7 4.7-5.6 2.1-7.5-.1-15.1-1.7-7.9-3.1-8.8-2.8-5.4-1.7-1.1.6-4.2 4.7 4.9 6.2 15.4 2 9.5v8.6l-3.7 28-.8.8-2.5.3-1.8-2-1.8-1.8-6.2-7.1v-1.7Zm-1.6-.9v-1.7l.8 2.3-1.1 1.1.3-1.7Zm-3.7-4.8 1.1 2-.6.6-2.3-2.5h1.8v-.1Zm-105.6-25.2 2.7-5.1 4.1-3.5 6.2-2.8h14.1l20.3 5.4 18.6 7.3h6.5l4.5-5.9v-9l-1.7-1.1v-5.6l2 2 1.4 10.4 2 10.7 3.1 7.1 17.8 13h-4v-1.8h-2.7v1.8h-5.1l-2.1-5.1-5.9-6.5h-2.8v-1.8h-4.4v-1.4l-4.8-2.3h-2.3v-1.7h-2.5l-6.8-2.8-3.1-1.6h-2.7v-1.6l-4.8-.3-1-1.6-7.1-1.1-9.3-.8v-1.6h-6.2v1.8h-6.2v1.8h-2.3l-3.4 3.4-2.5 3.4-2.3 4v7.9l7.9 22v1.3l-2.5-2.5v-2.8h-1.8v-5.1h-1.8v-3.4l-1.4-.6-5.9-18.6-1.7-5.1-.1-.2ZM1272.73 790.654l-4 1.4-2.5.8-67.5.3-7.1 3.4-4 4.5-1.1 5.1 2.8 4.2 9.9 9.9h4.9l9.9-2 17.5 2 24.6 1.7 21.7-1.7 9.9-3.7 7.9-7.6 3.7-7.9 2-6.2v-19.9h-1.8v-3.4l-1.7-.6-.6-2.5-6.5-6.8h-1.4l-3.4-2.5 9-9.3 3.1-6.5-.4-2.8-.4-3-3.1-14.1-2.8-4.5-3.1-2.8v-5.2l3.5-4.4v-4l-2-4.5h-1.6v-1.8l-2-2-2.1-2-4-2.3h-24.8v-2l-43.1 1.1-15.7 1.1-2-2h-6.8v1.7l-4 1.1-4.2 4.5v6.6l8 9 9.3 4.5 31.1 3.7 23.4 2.5 10.4 4.8 4.8 4.8v2.1l-9.3 2-42.6.8-16.9 2.8-5.9.8-.8 1.7h-2.7l-7.1 7.1v6.4l10 10.6 7.9 5.4h6.6l10.2 2.3 10.3 2.3 19.2 1.7 7.8 1 7.8.8 9 3.1 3.4 4.5-.6 2.4v1.5Zm1.1-22.2-.8 1.3v-1.7l-10.2-2.8-29.4-3.7-6.2-.8-8.8-2-6.6-1v-1.6h-3.7l1.1 1.7h-1.8l-1.1-1.7h-3.4v-1.8l-1.7.8-2.3-2.8 1-1 13-1.7 42.6-1.7 12.4-2.8 8.8-4.2 4-5.9v-4.7l-3-6.2h-1.4v-2l-6.6-6.1h-2.4l1.1-1.8h-3.7v-1.8h-3.5v-1.5l-7.6-2.4-15.2-1.7-23.7-.8-1.4-.8-15.8-1.1-.6-1.6h-3.4v-1.8h-1.8l-2.5-2.5v-4.5l3.8-1.1 6.5 2.8 29.4 2 30.2 3.4 17.8 1.1 2.3 1.7v2.3l-2.3 2.5-2.3 4v4.1l7.6 11.9 2.8 11.6v4.4l-4.5 4.5-6.8 1.1-5.1 2-4.2 4.5-1 4.2 1.7 3.4 6.6 2.1 2.3 1.1-.2 1.1Zm10.9 14.4-.1-5.6-4-3.4h1.3l-2.5-2.5h-1.8v-1.8h-2.7v-2.3l6.2 3.1 6.5 5.6 1.1 2.8 1.3 2.8v17.2l-3.5 7.2-4.8 2.3-10.7 2-67.2.6-5.9-6.5 1.1-1.7 34.7 1.7 34.6-.1 8.2-3.7 5.6-5.9 3-6.2-.4-5.6Z" style="fill:#fff;fill-rule:nonzero"/><path d="m1184.03 612.454.8 16.9 1.1 7.1 6.2 12.7 9.9 10.4 8.5 5.4 9.9 3.4 10 1.4 10.2 1.4 13.3 2 12.1-2.8h12.4l8.3-4.2 7.3-7.8 3.7-7.1 2-5.4-.4-5.6h-1.4v-2.4l-4.5-3.8h-7.9l-5.1 2.3-2.8 2.3-8.8 2-6.2 1.4-7.9 1.1-14.1-.3-16.4-1.1v-1.8h-6.5l-6.4-2.3-6.8-6.5v-2.8h-1.8v-6.6l6.2-6.8 10.2-6.8 7.6-2.8h5.9l15 2.8 16.1 4.5 13.1 5.9h3.4l4-2 2-2 3.7-5.4 2-9.6v-3.2l-5.6-5.9-2.5-.6-.6-1.7h-3.2l-1.1-1.7h-3.4v-1.8h-5.4v-1.6l-4.8-1.1-19.5-3.7h-16.9l-11.6 2-9 4.5-3.7 3.4h-1.8l-14.4 13.8-1.7 4.8-2.7 5.7Zm24 37.1 9.5 3.2 11.6 1.7 20 2.3 13.6-2.3 13.6-2.5 7.3-3.7 1 2.7-2.8 4.5h-15.1l-7.1 2.3v1.4h-16.9v-1.8h-21.2l-.6-1.7-6.2-.6-2.3-1.7-2.5-2.3h-2v-1.6h.1v.1Zm-18.8-38.2 2.7-5.1 4.2-4.5 4.2-3.4 15.1-7.1 11-.8 23.4 2.1 17.2 4.2 11 5.1 1 3.8h-4.2v-1.8h-5.4v-1.8h-4.9l-1.7-1.7-7.1-1.1-10.7-2-16.7-1.1-7.3 2.4-8.5 5.1h-1.7v1.4l-4.8 2.8-6.8 6.2-6.2 10.4v5.1l2.5 6.2h-1.4l-3.2-7.1h-1.4l-1.1-6.8-.6-3.7 1.4-6.8ZM1238.43 389.854l-1.1 1.7h-13.1l-1.1 1.7h-3.2l-14.4 7.9-2 1.6-1.8 1.6-7.3 7.3-2.8 3.4-3.7 5.4-2.8 7.9v1.7l1.7 16.9 4.8 15 4.5 8 11 11h3l4.2-6.6 1-3.7-3.1-17.6-2.8-7.9v-5.5l6.8-10.4 5.9-4.8 5.1-2.8 3.4 1.1 1.7 3.1 7.5 23 6.4 12.1 7.6 8.5 6.5 3.1 8.2-1.1 13.6-4.4 8.2-5.1 3.8-4.7 3.8-4.8 5.6-12.4 2.3-12.1-4-12.8v-3h-1.8v-2.3l-6.1-6.6h-2v-1.3l-7.6-4.5-7.6-2.3v-1.6h-6.1l-1.1-1.7h-10.4l-1.1-1.7h-7.1v1.8h-4.4v-2.1h-8.1Zm8.4 41.6-.6.6v-3.4l.8 2.3-.2.5Zm1.7 5.2-.6.6v-3.4l.8 2.3-.2.5Zm11.9-32.6 16.7 4.2 6.5 2.8 5.9 4.8 4.2 9.6 1 4.2.8 4.2-2 10.2-5.5 8.9-6.8 4.9h-2.7l-.6 1.7-3.1.6-3.1.7-10.2.8v-2l-1.4.3-2.3-.3v-3.5h-1.8v-1.6l4.5 2.8 8.5-.8 12-5.9 6.4-7.1 4.2-9.6 1.1-7.1-3.4-5.4h-1.4v-2.8l-2.5-2.5h-2.8v-1.7l-7.9-3.1v-1.1l-6.5-.6-3.1-1.7h-8.8l-4.2 2.3-4.2 2.8-2.4 6.8-.3 5.4-.8-4h-1.3l-.3-4.8-1.7-.6v-2.3l-5.1-5.1h-6.4v1.8h-3.2l-5.4 2.8-12.4 11.9-5.4 9-2.1 8.9 3.7 12.1 7.9 15.5-2.8 1.4-2.8-.7-3.7-5.6-4-10.7v-5.5l-1.4-.8-.3-12.1 2.1-2.1-.1-11.6 7.1-7.3 9.9-6.2 6.5-2.8 16.1-2.3 21.1-.1Zm.6 27.6h-1.4v-3.5h-1.8v-3.4l-1.7-1.1v-2.5h4.1l15.8 4.5 5.6 4 2.1 4-2.3 5.4-14.1 6.5h-1.1l-3.4-4v-2.6l-1.8-7.3ZM1158.53 92.454c-.4-2.7-2.5-5.1-3.8-7.3-1.1-2.1-2.1-5.4-3.8-7.3-3.1-3.5-8.8-8.3-12.6-11-6.1-4.4-11.9-8.2-19.5-9-1.8-.1-3.7.1-5.5 0-2.7-.1-7.8-.7-10.4-.3-2.3.3-.3 4.4-1.8 5.5-2 1.4-4.4-1.4-6.5 0-1.3.8 1.6 4.4 0 4.5-1.6.3-3.4-.6-4.9 0-2.7 1-5.8 5.4-7.1 7.6-5.1 8.6-10.6 17.9-13.6 27.7-2.4 7.9-4.5 16-6.4 24-.6 2.4 0 4.8.3 7.2 0 .6.1 1.6-.3 2-1.4 1.3-3.1-1.3-4.5 0-.4.4-.3 1.4-.3 2 .1 1.7.4 3.4.6 5.1 0 .6.1 1.6-.3 2-1.1 1-1.4.8-2.7 1.3-.3.1.6 1.7.1 2.7-.6 1.7-2 3-3.1 4.4-1.1 1.4-2.4 2.7-3.5 4.2-1.3 1.8 1.6 4.2-.1 6.1-2.1 2.3-5.6 4-7.1 7.1-1.8 4.2-.8 8.9-2.7 13.1-.6 1.4-2.4-1.4-3.1 0-3 6.4-5.1 13-7.9 19.3-1.8 3.8-3.1 3.7-4.2 7.9-1 3.8 1.8 7.6 0 11.4-1 2-3.7-2-4.5 0-1.7 3.7 1 7.6 0 11.4-.4 1.6-2.8-1.6-3.5 0-2.4 5.2-2.7 10.9-4.4 16.4-.6 1.8-1.1 3.7-2 5.2-.3.6-2.7 1.7-3 2.3-5.6 14.1-8.6 28.5-11.7 43.2-.7 3.5-4.2 4.9-4.9 8.5-.6 3.7.8 4-.3 8.3-.7 2.8-3.8 4.5-4.1 7.5-.3 3.5-.1 7.2-.4 10.7-.3 2.4-4.4.4-4.5 2.8-.3 2.8.6 5.6 0 8.5-.1.6-3.2 1.1-3.5 1.6-2.1 3.5-9.5 20.3-11.2 23.9-3.7 8-7.2 16.1-11.2 23.9-.6 1.3-2.8 2.1-3.2 3.5-.4 1.6-.3 3.2-.4 4.8 0 .6.3 1.4-.3 2-1.3 1-2.8 1.4-4 2.5-.4.4-.1 1.3-.3 2-.1 1.4 0 3-.4 4.4-.4 2-3 1.7-4.1 2.7-2.1 2 .1 5.2 0 7.6 0 .7.1 1.7-.4 2-.4.1-2.1-3.4-2.7-2.7-3.5 4.1-7.8 15.4-8.9 17.8-2.8 5.9-6.4 11.7-8.9 17.8-.1.3 1 4.9 0 5.1-.4.1-3.4-1.3-3.7 0-1.1 3.8-2.3 7.6-3.1 11.4-.8 4-.3 10.6-5.1 12.7-4.9 2.1-9.9-5.5-12.4-8.6-11.4-14.3-19.2-24.6-31.8-37.8-8.5-8.9-20.9-20.2-30.4-28-10.7-8.8-21.6-17.4-32.5-26-8.2-6.5-32-25-40-31.9-3.1-2.7-5.4-7.1-7.8-10.2-4-5.4-7.9-10.6-12.1-15.7-3-3.7-9.9-11.3-13.7-14.3-3.5-2.8-6.9-3.5-10.9-5.5-3.1-1.6-7.5-4.5-10.9-5.5-2.5-.7-6.1 0-8.6 0s-6.6-.4-9.2.4c-4 1.6-8 4.7-11.4 7.3-3.8 3-11.4 7.9-13.7 12.7-3.8 8.2-1.7 18.9-.6 27.2 1.6 12 2.8 24 4.4 35.9 1.6 12 3 23.9 4.8 35.9.7 4.9 3.5 14.5 4.8 19.3 4.7 18.9 6.4 25.1 9.2 44.5 4.1 27.8 4.7 55.9 6.2 83.9.8 16.8 1.8 27.1 1.8 44 0 13.8-.7 19.1-1.6 32.9-.7 12.1-1.4 24.1-1.8 36.3 0 1.7.8 3.5 1.3 5.1.3 1.4.3 3.8 1.3 5.1 1.7 2.4 6.5 6.5 8.6 8.5 3.8 4 4.2 5.2 8.6 8.6 1.8 1.4 4.7 0 6.5 0 2.1 0 4.4.8 6.5 0 3.2-1.4 9.7-6.2 12.7-8 3-1.8 10.2-5.5 12.8-8 1.8-1.7 2.5-5.2 3.5-7.3 1.1-2.5 3-4.7 3.5-7.3 1.1-5.6 2-16.7 2.8-22.4.8-6.5 3-15.8 2.8-22.4-.1-10.6-2.8-28.8-3.2-39.4-1.3-33.5-1.8-66.8-3-100.2-.1-2.1-2.7-2.8-3.1-4.8-.8-3.8-1-7.6-1.4-11.4-1-11.4-1.3-23.3-3.4-34.4-.7-3.7-3.2-6.8-5.1-10-.4-.7-1.1-2.1-.3-2.8.8-.7 2-.7 2.8-1.3.6-.3.8-1 1.4-1.3 2.8-1.7 4.2.7 6.4 2.4 5.2 4 10.7 7.6 15.8 11.9 5.1 4.2 9.9 8.8 14.7 13.3 6.2 6.1 11.9 12.6 17.9 18.8 10.9 11 22.2 21.3 32.8 32.6.7.7-.4 3.7 0 4.4 1 1.8 2.7 3.1 4 4.8 4.1 5.1 8 10.3 12 15.2 10.9 13.6 11.6 14.5 24.1 26.5 9.9 9.5 14.3 13.3 25.6 21.2 1.6 1.1 3.1 2.3 4.9 2.8 1.4.4 6.2 0 7.6 0 2.1 0 5.5 1 7.6 0 3.1-1.4 11-7.3 13.7-9.2 7.8-5.5 9.6-6.4 16.4-12 2-1.7 5.4-4.7 6.8-7.2 6.9-12.8 10.7-27.5 15.8-41.1 3.7-9.9 9.9-18.4 14.1-28 2.8-6.4 6.1-17.9 8.6-24.4 1.7-4.4 3.8-8.5 5.8-12.8 1.3-3 4.1-10 5.8-12.8 3.2-5.4 6.9-10.4 10.4-15.7 6.6-9.7 12.8-18.8 16.7-30.1 1.7-4.9 3.2-9.9 4.8-15 .6-2 .7-6.6 3.4-7.8 1-.4 2.1-.3 3.1-.6 1-.1 1.8-.7 2.8-.4 3 .7.3 6.8.3 7.6-.6 6.5-.1 16.4-.8 23-.3 3-1.7 4.7-3.4 6.9-.3.4-1.7 1.4-1.3 2.3.4.7 1.4-.6 2.1-1.1.7-.6 1.3-1.4 2.1-1.8.3-.1 1-.6 1.1-.3.4 3.4 0 6.9 0 10.4 0 3.2.7 7.1 0 10.4-.3 1.4-3.7-.4-4.2-.4-.3 0-.7.1-.7.4-.6 28.5 3.4 56.9 3.5 85.4.6 84.3.6 239.2.3 323.4 0 11.4-2.4 22.7-3.2 34.2-1.1 15.1-1.7 30.4-2.5 45.6-.6 10.2-2.5 35.4-2.5 45.6 0 6.8 1.7 11.6 2.5 18.2.3 2.5.4 5.2.4 7.8 0 2.7-1 6.5 1.1 8.8 1.6 1.7 2.5 1.6 4.5 2.5 3.7 2-.4 6.8 1 9.7.6 1.3 1.7 2.4 2.5 3.5l.8.8 1.7 2.1c.8 1.4 3.7 5.6 5.1 6.5 1.7 1 4.4.1 6.1.1 1.7 0 4.4 1.1 6.1.1 1.7-1 3.7-4.7 4.8-6.1 1.7-2.3 3.5-3.7 4.9-6.2 1.8-3.5.3-7.9 2.8-11.3 3.1-4.4 8.8-6.2 11.9-10.7 1.4-2.1 2-4.9 2.3-7.3 1.3-13.7-.1-27.7.4-41.5.8-19.1 2.3-38.3 3.5-57.3.8-11.9 2.1-11.6 4.1-23.3 1.7-10.2 2.3-20.3 3.2-30.6 2.5-28.4 4.8-66.2 5.9-92.3 2.3-51.2 3-87.8 3.4-139.2.6-61.8.1-123.8 1-185.6.1-12.4 1.8-36.6 2.4-49 1-18.2 2.5-56.8 4.1-74.3 1.8-21.9 4.9-37.8 8.2-59.6 2.7-18.4 5.1-36.8 8-55.2.6-3.7 1.7-7.2 2.5-10.9 3.7-14.7 3.7-15.2 8-29.8 1.8-6.1 4.5-12.7 5.4-19.1 1.7-5.1 1.7-15.3 1-20.3Zm-195.9 365c-.4 2.1-.8 4.4-1.1 6.5-.6 3.4-.8 6.8-1.4 10.2-.3 1.7-2.8.8-3.2 2.4-.6 2.3-.8 4.7-1.4 6.8-.6 2-3.7-.6-4.2 1.6-.6 2.1.3 3 .3 5.1 0 .4.1 1.3-.3 1.4-.6.1-4.1-1.6-4.5 0-1.4 4.5 1.7 9.2 0 13.7-.8 2.3-4.5-2.3-4.9.8-.4 3.4 1 3.2.7 6.6 0 .1-1.7 3-1.7 3.1.3 1.3 2.8 1.7 2.4 2.8-.1.4-1 .4-1.6.4-1.4 0-2.7-1.4-4.2-.3-.6.4-.1 1.4-.1 2 .1 2.3.4 4.7.1 6.9-.1 2.4-4.4.4-4.5 2.8-.1 1.7 1.6 5.1 0 6.8-2.5 2.8-5.4 5.2-7.9 7.9-2.8 3-4.7 5.4-7.9 7.9-1.6 1.3-3.1 4-4.7 4.5-2.4.8-7.1 1.6-9.7 1.1-6.4-1.3-11-8.2-14.8-12.7-12.6-15-12.1-15.2-24.4-30.5-4.9-6.2-10.2-12.1-15.1-18.2-5.9-7.2-8.8-11.4-15.1-18.2-18.9-20.2-39.5-38.7-61.8-55.1-7.3-5.4-23.6-16.4-31.5-20.8-1.3-.7-4.2-.4-5.5-.4-3.7 0-7.2 0-10.9-.1-1.1 0-3.4-1-4.5-.6-2.8 1-.7 6.1-.6 7.5.8 8 1.3 16.1 2.3 24 2.8 23.3 4.4 22.9 7.5 46 3.1 22.4 2.8 29.2 4.2 51.8.7 12.1 1.8 24.3 2.4 36.4 1 27.5 1.6 55.2 2.1 82.7.1 7.8.3 15.4.3 23.2 0 1.6-4.2 3.8-4.8 4.8-1 1.4-4.9 4.9-3.7 3.7l-1.8 1.8c-2 2.5-7.8 9.3-10.7 4.4-.4-.7-.7-1.4-1-2.1-.3-.7-.4-1.6-.3-2.3.4-4.2 4.2-7.1 4.5-11.4 1.3-27.4 2.5-55.3 1.7-82.9-.6-19.9-2-34-3.2-53.8-1.3-19.6-1.1-27.5-3.4-47.3-1.7-15-6.6-29.6-9.9-44.2-2.4-11-3.1-18.6-4.5-29.9-2.4-20.3-4.9-40.5-7.2-60.8-.3-2.7-.4-7.8.3-10.3.3-1.1 2.1-2.5 2.8-3.4.7-.8 1.6-3 2.8-3.4 1.8-.6 5.5 0 7.3 0 1.8 0 3.8-.7 5.6-.6 4 .3 6.5 5.8 8.6 8.2 2.3 2.7 4.8 4.9 6.9 7.6 3 3.8 1.6 4.4 4 8.5 3.5 5.8 9.6 10.4 14.5 14.8 9.5 8.2 19.3 15.8 28.7 24.1 2.4 2.1 4.4 4.8 6.8 6.9 5.8 4.9 12.4 8.5 18.2 13.4 2 1.6 5.4 6.6 7.3 8.2 1 .7 2.5-.7 3.5 0 1.4 1.1 5.9 7.1 7.3 8.2 6.1 4.9 13.1 8.3 19.1 13.6 1.7 1.6 1.3 3.5 2.7 5.4 3 4 11.4 13 14.8 16.7 3.1 3.2 7.5 7.1 10.3 10.7 3.8 4.9 3.2 6.5 7.3 11.2 6.2 6.8 12.7 13.1 19.1 19.8 2.4 2.5 8.9 9.6 11.6 11.7 2.3 1.8 4.8 1.8 7.3 3 2.3 1 4.5 3.4 7.3 3 2.7-.3 4.2-3 6.1-4.5 2.3-1.8 4.4-2 6.1-4.5 8-10.9 12.6-24.4 18.9-36.1.3-.6 4.4-4.7 4.8-5.2 1-1.4-2.8-.4-2.1-2.1 3.1-7.5 5.9-12.4 9.3-19.9.6-1.3 1-2.7 1.6-4 .3-.4 1.3-1.1 1.4-.7.3 1.3-.4 2.6-.7 3.7Zm36.5-70.3c0 .4-.1.8-.1 1.4 0 .6.3 1.7 0 2.3-.4 1.3-2.4 5.2-1.7 3.8l-.8 2c-.6 1.4-1 2.8-1.7 4.2-.6 1.3-1.4 2.3-3 2.4-.4 0-1.7 0-1.7-.7.1-2.5 1.6-4.5 2.4-6.8.7-1.7 1.6-5.2 2.4-6.8.4-.7 1.6-1 2.1-1.3.4-.3.7-.6 1.1-.8.1-.1.6-.6.8-.4.3 0 .2.5.2.7Zm49.9-116.8c-.6.3-4.1-1.4-4.5 0-1.4 3.8 1.6 7.6 0 11.4-.8 2-3.7-2-4.5 0-1.7 3.7 1.3 7.5 0 11.3-1.7 5.1-4.7 9.9-6.4 15-2.3 6.8-3.5 13.7-5.8 20.5-.8 2.5-3.8 3.2-4 6.1 0 2.5 1.6 6.4.1 8.9-.6 1-1.4 1.8-2.1 2.5-1.1 1.1-2.4 2.1-3.5 3.2-1.3 1.3-2.5 2.4-3.5 4-.3.4 0 1.8 0 1.3v1.7s.7 2.3 0 3c-.6.6-1.6.6-2.3.7-.1 0-1.8.1-1.7-.7.6-3.2 3-8.9 4.1-12 1.4-4 2.8-7.9 4.1-12 5.4-16.8 11-33.6 16.1-50.5 2.5-8.3 1.6-10.7 3.5-19.1.4-2 1.7-4.8 4.2-4.5 1.3.1 1.8 1.1 2.8 1.6 1.6.7 3.5.6 3.5 2.8 0 .6-.3 1.1-.1 1.7 0 .3.8 2.7 0 3.1Zm72.3-165.7c-1.7 9.7-.7 9.7-2.5 19.5-.7 3.4-4.1 5.1-4.9 8.5-2.8 11.2-3 14.8-5.1 26.3-4.9 28-7.8 40.9-11.4 69-3.5 27.2-3.7 55.1-5.5 82.4-.1 2-3.5.3-3.5 2.3-1.4 112.4 1.3 224.6-.1 337 0 2.4-1.8 3.4-1.8 5.8-.3 6.4-1.8 8.9-1.6 15.2.1 3 3.5 1.6 3.5 4.7-1.1 39.1 1.6 19.9-2.5 58.9 0 .6-1.3 12.4-.8 15.1.3 2 .8 4.1 1.7 4 .7-.1 2.1-.4 2.1.3 0 6.5-.3 13.1-.6 19.6-.8 22-2.5 48.3-3 70.3-.6 32.5-.7 64.9-1 97.4 0 7.2 1.6 15.5.6 22.7-.6 4.1-2.3 6.9-4.1 10.7-1 2-1.8 4-3 5.8-1.3 2-4.9 3.8-5.5 6.2-.3 1-.1 2-.1 3 0 .6.4 2.5 0 3.1-.6.7-1.4 1-2.3 1.4-.3.1-1 .3-.7.1l-1.4.8c-1.4.8-2.8 1.8-4.4 2.4-.4.1-1-.4-1.4-.6-1.8-.4-3.8-.6-5.6-1.3-4.7-1.8-6.1-8.5-7.1-12.6-.3-1.1.3-2.5.7-3.5 1.3-3.2 3.5-7.1 3.7-10.6.8-14 .8-28.1 1.3-42.1.4-18.2-.3-36.7 3.1-54.8 2.4-12.6 6.6-24.7 7.8-37.6 1.4-16.1 1.3-34 2.1-50.1 1.8-39 4-77.8 5.8-116.8 2.7-59.3 2.4-118.7 3.1-178.2.6-52 1.3-103.9 2.1-155.9.4-20.6 4.8-40.9 5.4-61.6.1-4.8-.8-10-1.3-14.8-.7-6.9-.4-14.5-3.4-21-1.4-3.2-4.4-.7-6.8-1.7-2.4-1-2.3-4-3.8-5.6-1.7-1.8-3.2-1.3-5.4-1.1-2.1.1-5.5 1.4-4.7-2 .1-.7.6-1.1.8-1.8 2-4.4 3.8-8.9 5.9-13.4 5.1-10.3 10.3-20.6 15.5-30.8 5.4-10.7 10.6-19.8 15.5-30.8 3-6.5 2.7-13.8 4.1-20.6 1.6-7.3 3-10 5.9-16.8 1.4-3.4 2.5-6.9 4.4-10.2.8-1.6 2.4-2.7 3.7-4.1 2-2.1 3.8-4.8 7.2-4.4 1.1.1 1.7.8 1.8 2-.1 3.8-1.9 6.6-2.5 10.3Z" style="fill:#fff;fill-rule:nonzero"/></svg>